<?xml version="1.0" standalone="no"?>
<!DOCTYPE svg PUBLIC "-//W3C//DTD SVG 20010904//EN"
 "http://www.w3.org/TR/2001/REC-SVG-20010904/DTD/svg10.dtd">
<svg version="1.0" xmlns="http://www.w3.org/2000/svg"
 width="149.000000pt" height="149.000000pt" viewBox="0 0 149.000000 149.000000"
 preserveAspectRatio="xMidYMid meet">
<metadata>
Created by potrace 1.11, written by Peter Selinger 2001-2013
</metadata>
<g transform="translate(0.000000,149.000000) scale(0.100000,-0.100000)"
fill="#000000" stroke="none">
<path d="M693 1468 c-6 -7 -13 -21 -16 -30 -3 -9 -16 -18 -29 -21 -20 -4 -20
-4 -3 -6 12 0 30 -17 45 -40 27 -45 40 -44 41 2 1 18 5 43 9 57 6 17 8 2 9
-52 1 -68 -1 -78 -16 -78 -11 0 -31 21 -48 49 -42 69 -95 76 -95 13 0 -18 -4
-23 -15 -18 -11 4 -8 -5 8 -27 34 -45 51 -124 38 -173 -7 -26 -7 -34 0 -27 6
6 28 8 50 6 21 -3 39 -1 39 4 0 5 -12 9 -27 8 -25 0 -28 4 -31 39 -5 58 5 84
38 101 33 17 86 20 95 5 3 -5 1 -10 -6 -10 -8 0 -6 -7 5 -19 14 -15 15 -24 7
-40 -9 -16 -20 -19 -54 -18 -36 2 -42 5 -45 25 -2 13 0 29 5 36 4 6 0 3 -9 -7
-10 -11 -18 -27 -18 -37 0 -21 42 -41 61 -30 7 5 18 5 25 -1 32 -26 71 40 42
69 -6 6 -8 15 -4 19 4 5 16 -2 26 -15 13 -15 20 -18 23 -10 3 7 5 -9 5 -37 0
-41 -2 -45 -7 -20 -7 28 -8 27 -12 -17 -2 -25 0 -44 4 -41 4 3 13 0 20 -5 9
-8 12 7 12 61 0 54 5 82 21 113 19 35 20 44 9 70 l-13 29 -1 -29 c-1 -33 -48
-109 -62 -100 -5 3 -4 15 2 27 9 21 9 21 -5 3 -15 -19 -36 -14 -36 8 0 7 16
30 35 52 30 34 34 36 35 17 0 -12 -4 -25 -10 -28 -5 -3 -10 -11 -10 -17 0 -6
9 1 20 15 27 34 21 71 -12 75 -18 2 -28 11 -32 26 -3 13 -13 27 -23 30 -16 6
-16 6 0 -12 18 -20 22 -42 8 -42 -5 0 -14 -17 -20 -37 l-11 -38 5 43 c3 24 6
49 8 55 1 7 -12 13 -31 15 l-33 3 6 -48 6 -48 -16 34 c-19 43 -19 58 3 70 9 6
12 11 6 11 -6 0 -16 -6 -21 -12z m157 -65 c-8 -3 -28 -20 -43 -37 -25 -27 -27
-28 -16 -6 18 39 30 50 53 49 14 0 16 -2 6 -6z m-236 -16 c-2 -7 7 -28 21 -47
14 -19 25 -29 25 -23 0 7 -4 14 -9 17 -5 3 -11 17 -13 30 -7 35 13 23 45 -26
20 -31 24 -44 15 -49 -7 -4 -19 -2 -27 4 -12 9 -13 9 -7 0 4 -7 4 -18 1 -23
-8 -13 -52 39 -60 73 -7 26 -1 57 9 57 3 0 3 -6 0 -13z m160 -72 c-4 -8 -8
-15 -10 -15 -2 0 -4 7 -4 15 0 8 4 15 10 15 5 0 7 -7 4 -15z m-135 -75 c0 -10
-3 -8 -9 5 -12 27 -12 43 0 25 5 -8 9 -22 9 -30z"/>
<path d="M402 1363 c-10 -4 -10 -8 0 -21 7 -10 8 -14 3 -9 -4 4 -17 0 -27 -10
-18 -16 -25 -7 -10 13 4 5 -3 -1 -15 -14 -18 -17 -23 -35 -23 -72 0 -37 5 -55
23 -72 12 -13 21 -22 20 -20 -1 3 2 12 7 22 6 12 5 23 -5 36 -21 28 -18 78 6
100 20 18 20 18 14 -8 -4 -16 -2 -29 6 -33 8 -5 10 -4 5 4 -9 13 19 61 35 61
6 0 7 -4 4 -10 -3 -5 -2 -10 4 -10 6 0 18 -9 28 -19 15 -16 34 -19 76 -12 4 0
7 8 7 16 0 24 -46 47 -92 45 -58 -2 -68 0 -38 10 20 6 21 8 5 8 -11 0 -26 -2
-33 -5z m-51 -90 c-4 -28 -6 -32 -9 -15 -3 22 3 52 11 52 1 0 1 -17 -2 -37z
m19 -68 c14 -18 13 -19 -1 -8 -9 7 -19 10 -22 6 -4 -3 -7 -2 -7 4 0 9 12 26
14 21 1 -2 8 -12 16 -23z"/>
<path d="M934 1354 c-19 -15 -19 -15 1 -6 11 5 27 12 35 15 13 5 13 6 -1 6 -8
1 -24 -6 -35 -15z"/>
<path d="M1049 1363 c22 -9 69 -59 76 -82 3 -11 1 -29 -4 -40 -6 -11 -8 -27
-5 -36 4 -10 2 -15 -6 -13 -14 3 -23 -29 -11 -37 5 -2 19 7 31 20 18 20 21 28
12 37 -7 7 -12 18 -12 26 0 12 3 12 15 2 13 -10 15 -9 15 9 0 12 -4 20 -9 17
-5 -3 -12 1 -15 10 -8 22 -8 26 4 19 20 -12 9 12 -15 35 -14 13 -25 20 -25 16
0 -4 -7 0 -16 8 -8 9 -23 16 -32 15 -13 0 -14 -2 -3 -6z m80 -57 c-3 -3 -11 5
-18 17 -13 21 -12 21 5 5 10 -10 16 -20 13 -22z m11 -109 c0 -2 -8 -11 -18
-20 -15 -14 -19 -15 -19 -2 0 8 4 12 8 9 4 -2 10 0 14 6 6 10 15 14 15 7z"/>
<path d="M940 1330 c-33 -33 -22 -48 30 -40 11 1 10 -4 -5 -21 -19 -23 -19
-23 8 1 15 13 25 30 22 38 -2 7 -1 11 4 7 13 -7 42 5 35 16 -10 16 13 9 29 -9
19 -21 22 -38 7 -45 -6 -3 -5 -4 2 -3 20 4 21 36 2 57 -24 27 -106 27 -134 -1z"/>
<path d="M425 1289 c-4 -6 -4 -13 -1 -16 3 -4 6 -1 6 6 0 8 8 10 23 6 17 -5
19 -4 7 4 -19 14 -27 14 -35 0z"/>
<path d="M1016 1284 c-5 -13 -3 -14 6 -7 7 6 20 13 28 16 10 4 8 6 -6 6 -12 1
-25 -6 -28 -15z"/>
<path d="M570 1286 c0 -2 7 -21 16 -42 9 -21 13 -50 10 -66 -3 -18 -2 -27 4
-23 15 9 12 60 -4 100 -13 29 -26 46 -26 31z"/>
<path d="M892 1265 c-7 -14 -11 -47 -11 -73 l2 -47 7 50 c4 28 11 60 15 73 10
30 1 28 -13 -3z"/>
<path d="M520 1260 c6 -11 13 -20 16 -20 2 0 0 9 -6 20 -6 11 -13 20 -16 20
-2 0 0 -9 6 -20z"/>
<path d="M728 1273 c6 -2 18 -2 25 0 6 3 1 5 -13 5 -14 0 -19 -2 -12 -5z"/>
<path d="M466 1261 c-3 -5 5 -11 19 -13 30 -6 32 -2 6 12 -11 6 -22 6 -25 1z"/>
<path d="M980 1256 c0 -2 11 -6 25 -8 13 -3 22 -1 19 3 -5 9 -44 13 -44 5z"/>
<path d="M499 1208 c-1 -7 -1 -16 0 -20 0 -4 -7 -4 -16 -1 -10 4 -14 2 -9 -5
4 -7 -11 -16 -41 -25 l-48 -15 43 -1 c31 -1 41 2 36 11 -5 8 -2 9 9 5 17 -6
47 26 47 50 0 17 -20 17 -21 1z"/>
<path d="M546 1180 c5 -32 2 -40 -21 -58 -31 -24 -50 -29 -40 -9 4 6 -3 2 -14
-11 -11 -13 -23 -22 -26 -22 -15 4 -20 -8 -14 -35 5 -22 7 -24 8 -9 1 15 14
29 41 43 51 26 58 26 35 1 -10 -11 -14 -20 -10 -20 16 0 -29 -40 -89 -80 -70
-45 -86 -49 -86 -20 0 15 -9 22 -32 27 -27 5 -29 7 -13 14 42 16 -9 8 -68 -11
-81 -27 -156 -69 -180 -101 -10 -15 -21 -46 -24 -70 -9 -83 69 -179 157 -192
l35 -6 -41 19 c-23 10 -45 23 -49 29 -3 6 -10 9 -14 6 -12 -7 -47 36 -60 74
-17 52 -12 129 9 116 4 -2 18 7 30 20 25 26 18 34 -10 13 -9 -7 -5 -3 8 10 16
15 30 21 44 16 11 -3 18 -2 15 3 -8 13 77 2 86 -11 6 -7 7 -6 4 4 -2 8 -17 18
-33 21 l-29 6 29 12 c16 6 50 14 75 18 42 5 44 4 27 -9 -11 -9 -17 -22 -13
-31 4 -11 -1 -17 -16 -20 -12 -2 6 -5 41 -6 36 0 78 5 98 14 34 14 36 14 29
-3 -3 -9 19 9 49 41 59 61 157 116 211 118 17 0 24 3 16 6 -16 7 -120 -17
-127 -29 -3 -4 -10 -8 -15 -8 -5 0 -3 13 6 29 14 27 14 46 0 117 -3 11 -11 21
-20 21 -11 0 -13 -8 -9 -37z m19 -94 c-9 -14 -14 -30 -10 -36 3 -5 2 -10 -2
-10 -5 0 -27 -18 -49 -40 -43 -41 -120 -80 -157 -80 -15 0 -8 7 22 21 60 27
177 124 193 160 7 16 14 25 16 20 2 -6 -4 -21 -13 -35z m-245 -131 c0 -8 -7
-15 -15 -15 -26 0 -18 20 13 29 1 1 2 -6 2 -14z"/>
<path d="M910 1199 c-7 -12 -9 -35 -6 -51 4 -20 2 -27 -5 -22 -19 11 1 -39 23
-61 l21 -20 -17 25 c-29 45 -17 40 32 -12 43 -46 125 -106 176 -129 17 -8 16
-9 -9 -5 -16 3 -39 8 -50 12 -16 6 -18 4 -8 -6 8 -8 43 -14 95 -16 46 -1 71 0
55 2 -15 3 -25 10 -22 15 4 5 -1 9 -10 9 -10 0 -15 7 -13 18 4 21 67 22 113 1
l30 -13 -27 -4 c-14 -2 -29 -10 -32 -19 -5 -12 -3 -13 6 -6 17 14 88 22 81 9
-4 -5 6 -6 23 -2 21 5 25 4 14 -3 -8 -6 -33 -8 -55 -6 l-40 5 38 -11 c42 -12
79 -55 96 -109 l11 -35 -6 40 c-3 22 -17 55 -30 73 -14 17 -20 32 -15 32 6 0
20 -13 32 -30 12 -16 25 -27 30 -25 13 8 18 -39 9 -79 -9 -41 -40 -91 -54 -87
-4 2 -20 -8 -34 -22 -15 -13 -40 -27 -56 -31 -15 -4 -27 -9 -24 -11 11 -11 97
20 121 43 105 100 96 208 -23 271 -62 33 -164 71 -190 70 -10 0 -8 -3 5 -9 20
-9 20 -9 0 -9 -27 -1 -45 -19 -38 -37 9 -25 -22 -15 -83 25 -81 54 -94 66 -94
83 0 8 -5 19 -12 26 -7 7 7 4 30 -5 28 -12 42 -24 43 -38 1 -16 2 -16 8 5 9
29 0 42 -31 46 -13 1 -26 3 -29 3 -21 3 -59 54 -58 78 0 27 1 27 9 6 11 -28
20 -30 13 -3 -9 35 -30 44 -43 19z m521 -310 c13 -26 7 -24 -22 7 -17 19 -19
23 -6 18 10 -3 22 -15 28 -25z"/>
<path d="M961 1217 c-1 -4 6 -22 15 -38 10 -20 21 -29 30 -25 9 3 12 1 9 -4
-4 -6 11 -10 37 -9 l43 1 -50 18 c-27 10 -46 19 -41 19 5 1 3 8 -4 16 -7 8
-16 13 -20 10 -5 -3 -11 1 -13 7 -3 7 -6 9 -6 5z"/>
<path d="M770 1140 c6 -11 15 -20 20 -20 6 0 2 9 -7 20 -10 11 -19 20 -21 20
-1 0 2 -9 8 -20z"/>
<path d="M975 1130 c10 -11 20 -20 23 -20 3 0 -3 9 -13 20 -10 11 -20 20 -23
20 -3 0 3 -9 13 -20z"/>
<path d="M367 1083 c-4 -3 -7 -14 -7 -24 0 -10 -12 -25 -27 -34 l-28 -16 38 5
c34 4 36 3 27 -14 -5 -10 -15 -21 -22 -23 -8 -4 -7 -6 4 -6 21 -1 58 45 58 73
0 32 -27 56 -43 39z m31 -21 c2 -7 -2 -10 -12 -6 -9 3 -16 11 -16 16 0 13 23
5 28 -10z"/>
<path d="M773 1083 c9 -2 25 -2 35 0 9 3 1 5 -18 5 -19 0 -27 -2 -17 -5z"/>
<path d="M1110 1076 c14 -18 13 -19 -13 -12 -28 7 -29 6 -22 -26 7 -32 39 -68
60 -67 6 0 2 4 -7 10 -31 17 -22 36 15 31 32 -4 32 -4 10 13 -13 9 -23 22 -23
29 0 8 -8 20 -17 27 -17 13 -17 13 -3 -5z"/>
<path d="M880 1053 c100 -47 197 -169 236 -298 25 -83 25 -258 0 -340 -41
-134 -125 -243 -224 -293 -55 -27 -57 -30 -51 -58 9 -46 17 -54 52 -54 40 0
75 23 88 59 l11 26 14 -27 c8 -16 19 -28 25 -28 6 0 1 12 -10 26 -22 28 -27
77 -12 116 19 47 89 107 146 123 30 9 55 20 55 25 0 4 16 24 35 43 41 41 47
89 16 128 -10 13 -21 33 -24 44 -4 17 -5 18 -6 2 -1 -15 -8 -18 -38 -15 l-38
3 -5 68 c-3 37 -4 67 -3 67 1 0 24 -12 53 -26 43 -21 50 -29 45 -47 -5 -19 -4
-19 9 3 16 27 13 40 -9 40 -8 0 -35 10 -60 22 -34 16 -45 28 -45 45 l0 22 26
-24 c18 -16 39 -25 61 -25 38 0 97 22 108 41 5 7 -2 5 -16 -4 -34 -24 -84 -22
-109 5 -19 21 -27 48 -13 48 4 0 17 -10 30 -22 19 -18 28 -20 50 -12 14 5 29
16 31 24 4 12 1 11 -15 -2 -23 -21 -46 -23 -61 -5 -12 14 -4 31 18 40 10 4 8
6 -7 6 -13 1 -23 -3 -23 -9 0 -5 -9 -10 -20 -10 -27 0 -25 15 6 39 32 25 47
26 68 5 9 -8 16 -12 16 -7 0 18 -25 33 -52 33 -33 0 -78 -42 -78 -72 0 -29 18
-56 48 -72 20 -11 22 -15 9 -16 -10 0 -30 12 -44 26 -22 22 -25 32 -21 72 l5
47 -18 -40 c-10 -22 -19 -32 -19 -22 0 27 18 59 48 84 21 18 23 23 10 23 -10
0 -22 -9 -28 -20 -6 -11 -16 -17 -22 -14 -6 4 -8 3 -5 -4 4 -5 4 -18 1 -27 -5
-12 -16 0 -40 45 -19 33 -35 66 -37 72 -3 16 -91 95 -127 113 -17 9 -30 19
-30 23 0 4 -15 8 -33 9 -29 1 -27 -1 23 -24z m365 -558 c14 -13 25 -35 25 -49
0 -31 -49 -88 -94 -110 -57 -27 -63 -18 -17 25 25 23 49 38 57 35 18 -7 35 33
27 63 -7 26 -47 38 -68 21 -18 -15 -19 -32 -4 -47 12 -12 39 -7 39 8 0 4 -7 6
-16 2 -12 -4 -15 -1 -12 13 4 24 27 25 42 2 17 -28 -15 -55 -51 -42 -23 8 -28
15 -28 44 0 27 6 37 25 47 36 18 48 16 75 -12z m-96 -117 c-31 -26 -39 -22
-28 12 9 26 13 28 30 17 19 -12 19 -12 -2 -29z m-168 -281 c-17 -48 -50 -77
-88 -77 -27 0 -34 5 -39 26 -4 15 -2 30 5 37 9 9 11 8 6 -3 -3 -9 1 -24 9 -35
12 -17 19 -18 43 -9 15 6 27 16 25 23 -1 7 3 21 10 30 10 13 10 14 -2 4 -11
-10 -16 -9 -26 5 -10 14 -7 20 20 38 26 18 32 20 39 7 5 -8 4 -28 -2 -46z
m-63 -23 c4 -26 -26 -41 -35 -18 -8 21 6 32 17 14 8 -13 10 -12 10 2 0 9 -8
19 -17 22 -14 4 -14 4 2 3 12 -1 21 -11 23 -23z"/>
<path d="M965 129 c-4 -6 -5 -12 -2 -15 2 -3 7 2 10 11 7 17 1 20 -8 4z"/>
<path d="M660 1041 c-114 -37 -200 -130 -256 -276 -22 -60 -26 -85 -26 -180 0
-95 3 -120 27 -185 104 -286 375 -372 564 -179 160 163 185 452 56 654 -37 59
-109 125 -163 151 -41 19 -162 28 -202 15z m180 -87 c30 -14 68 -37 84 -52 40
-38 77 -98 70 -116 -3 -7 -1 -17 5 -21 14 -8 14 -60 1 -86 -6 -10 -25 -26 -42
-35 l-32 -17 37 -18 c36 -19 67 -62 67 -94 0 -35 -32 -84 -65 -99 -40 -19
-131 -20 -164 -2 -13 7 -30 24 -37 37 -13 23 -13 23 -14 3 0 -27 41 -71 74
-80 31 -7 143 0 169 11 36 15 -21 -71 -88 -134 -72 -67 -115 -85 -189 -79
-138 11 -253 125 -292 288 -16 66 -18 124 -4 115 6 -3 10 -21 10 -38 0 -49 52
-131 96 -152 87 -41 214 25 214 112 0 11 -7 5 -18 -16 -26 -53 -63 -75 -125
-75 -66 -1 -96 14 -129 65 -35 53 -43 128 -23 199 9 30 17 63 18 72 1 9 4 16
7 15 4 -1 23 13 44 31 43 37 32 44 -12 7 -27 -23 -30 -23 -25 -5 3 10 11 25
19 31 8 6 14 17 14 24 0 20 78 85 134 111 67 31 126 31 196 -2z m205 -359 c2
-49 2 -80 -1 -67 -3 12 -20 37 -37 56 l-33 34 23 27 c13 15 23 40 24 58 1 69
20 -16 24 -108z"/>
<path d="M575 830 c-14 -7 -8 -8 20 -3 22 3 42 7 44 9 9 8 -45 2 -64 -6z"/>
<path d="M890 820 c31 -4 66 -12 78 -19 12 -6 22 -9 22 -6 0 13 -72 35 -112
34 -42 -2 -41 -2 12 -9z"/>
<path d="M794 804 c-18 -14 -18 -14 6 -3 31 14 36 19 24 19 -6 0 -19 -7 -30
-16z"/>
<path d="M571 791 c-11 -11 -24 -37 -30 -58 -12 -43 -15 -120 -4 -109 4 4 6
22 5 40 -5 50 21 104 53 112 17 4 30 2 35 -5 5 -9 9 -8 14 4 3 9 4 21 0 26 -9
16 -53 10 -73 -10z"/>
<path d="M823 785 c-3 -9 2 -24 11 -34 20 -22 20 -35 0 -55 -27 -28 -52 -14
-64 35 l-8 34 -1 -30 c-1 -37 23 -75 49 -75 20 0 50 35 50 59 0 8 -7 23 -17
33 -15 17 -15 18 14 18 42 0 61 -19 66 -65 3 -36 4 -35 5 12 2 43 -2 54 -20
67 -29 20 -77 21 -85 1z"/>
<path d="M716 746 c-8 -33 -42 -43 -67 -20 -25 23 -25 0 0 -25 27 -27 58 -16
72 26 6 19 9 36 6 39 -2 3 -7 -6 -11 -20z"/>
<path d="M613 663 c9 -2 23 -2 30 0 6 3 -1 5 -18 5 -16 0 -22 -2 -12 -5z"/>
<path d="M565 650 c-3 -6 1 -7 9 -4 18 7 21 14 7 14 -6 0 -13 -4 -16 -10z"/>
<path d="M660 656 c0 -2 7 -7 16 -10 8 -3 12 -2 9 4 -6 10 -25 14 -25 6z"/>
<path d="M906 653 c-3 -4 -25 -10 -49 -14 l-42 -6 36 -2 c19 0 44 6 55 14 10
8 16 15 13 15 -3 0 -9 -3 -13 -7z"/>
<path d="M716 615 c24 -39 24 -40 24 -28 0 6 -9 21 -21 34 l-20 24 17 -30z"/>
<path d="M551 604 c-43 -55 -16 -184 38 -184 10 0 26 10 37 23 19 22 19 22 -2
5 -45 -39 -84 -5 -84 73 0 59 26 88 68 73 24 -8 28 -15 33 -69 l6 -60 1 63 c2
50 -2 66 -18 82 -27 27 -55 25 -79 -6z"/>
<path d="M825 602 c3 -8 5 -16 5 -18 0 -2 15 -4 33 -4 48 0 65 -18 70 -70 l4
-45 1 46 c3 62 -23 95 -78 101 -31 3 -39 0 -35 -10z"/>
<path d="M755 539 c-11 -16 -1 -19 13 -3 7 8 8 14 3 14 -5 0 -13 -5 -16 -11z"/>
<path d="M832 495 c-6 -14 -16 -25 -22 -25 -14 0 -13 -27 2 -36 7 -4 8 -3 4 4
-4 7 -3 12 2 12 10 0 35 60 29 67 -2 2 -9 -8 -15 -22z"/>
<path d="M910 445 c-7 -8 -19 -15 -28 -15 -8 0 -13 -3 -9 -6 9 -9 45 5 51 21
7 19 2 19 -14 0z"/>
<path d="M838 423 c7 -3 16 -2 19 1 4 3 -2 6 -13 5 -11 0 -14 -3 -6 -6z"/>
<path d="M113 908 c7 -4 8 -8 2 -8 -13 0 -55 -62 -55 -81 0 -8 10 2 21 21 26
42 44 57 84 69 27 8 26 8 -17 7 -25 0 -41 -4 -35 -8z"/>
<path d="M393 848 c-15 -29 -31 -62 -34 -73 -7 -20 -7 -20 -8 1 -1 11 -8 29
-16 40 -14 18 -14 17 -5 -9 24 -67 -21 -117 -97 -111 -35 3 -43 2 -28 -5 42
-20 85 -12 117 19 17 17 28 24 24 15 -3 -9 -6 -22 -6 -29 0 -15 -74 -56 -101
-56 -10 0 -19 -5 -19 -11 0 -10 40 -9 50 1 3 3 18 14 34 24 21 13 30 15 36 6
4 -7 10 7 14 33 8 53 38 139 61 174 9 14 14 27 11 30 -2 3 -17 -19 -33 -49z"/>
<path d="M291 875 c20 -9 42 -27 49 -41 10 -17 16 -21 21 -12 9 15 1 31 -12
23 -5 -4 -9 1 -9 9 0 18 -6 22 -50 30 l-35 6 36 -15z"/>
<path d="M195 855 c-45 -44 -21 -136 32 -122 16 4 15 5 -2 6 -30 2 -45 20 -45
56 0 34 14 56 45 73 11 6 14 12 7 12 -7 0 -24 -11 -37 -25z"/>
<path d="M206 834 c-24 -23 -19 -27 10 -8 24 16 27 16 51 -3 15 -10 29 -25 31
-31 5 -17 -23 -15 -38 2 -6 8 -19 12 -27 9 -13 -5 -12 -8 6 -15 17 -6 21 -13
16 -26 -5 -14 -4 -15 6 -4 30 29 42 -8 12 -40 -9 -10 -11 -18 -5 -18 17 0 52
51 52 77 0 54 -78 93 -114 57z"/>
<path d="M1296 837 c3 -10 9 -15 12 -12 3 3 0 11 -7 18 -10 9 -11 8 -5 -6z"/>
<path d="M125 820 c3 -5 8 -10 11 -10 2 0 4 5 4 10 0 6 -5 10 -11 10 -5 0 -7
-4 -4 -10z"/>
<path d="M1346 815 c-3 -9 -5 -31 -5 -48 1 -27 3 -24 9 13 8 48 6 61 -4 35z"/>
<path d="M74 784 c-7 -26 13 -111 23 -100 3 3 0 19 -7 36 -7 16 -10 44 -6 60
7 37 -1 40 -10 4z"/>
<path d="M1311 794 c0 -11 3 -14 6 -6 3 7 2 16 -1 19 -3 4 -6 -2 -5 -13z"/>
<path d="M1397 767 c2 -38 1 -39 -6 -12 -8 28 -9 28 -10 5 -1 -14 -10 -41 -21
-60 l-21 -35 26 28 c21 23 25 25 26 10 0 -16 1 -16 9 2 11 25 12 92 2 99 -4 2
-6 -14 -5 -37z"/>
<path d="M102 749 c-1 -25 5 -44 19 -60 l21 -24 -15 26 c-9 14 -17 41 -20 60
l-4 34 -1 -36z"/>
<path d="M155 710 c3 -5 11 -10 16 -10 6 0 7 5 4 10 -3 6 -11 10 -16 10 -6 0
-7 -4 -4 -10z"/>
<path d="M231 595 c1 -19 18 -51 18 -35 0 8 -4 22 -9 30 -5 8 -9 11 -9 5z"/>
<path d="M285 580 c4 -8 16 -24 26 -35 18 -20 18 -20 -19 -17 -65 6 -112 -62
-82 -119 17 -32 90 -99 107 -99 24 0 113 -50 113 -63 0 -8 11 -24 25 -37 33
-31 36 -119 5 -150 -11 -11 -16 -20 -11 -20 6 0 17 9 25 21 8 12 18 19 23 16
6 -4 8 16 7 44 l-3 50 34 -27 c19 -14 35 -29 35 -32 0 -3 -10 -16 -23 -30 -22
-23 -22 -24 -3 -38 11 -8 27 -14 37 -14 22 0 43 26 35 45 -3 8 -1 15 5 15 6 0
9 -15 7 -32 -3 -28 -7 -34 -32 -36 -18 -2 -40 4 -57 17 -16 12 -29 17 -29 12
0 -17 44 -41 75 -41 38 0 55 16 55 50 l0 27 53 -10 c36 -7 67 -6 93 1 36 9 32
10 -47 11 -76 1 -93 5 -149 33 -67 35 -133 101 -174 175 -29 50 -66 163 -66
197 0 12 -17 40 -37 62 -20 21 -33 32 -28 24z m43 -82 c6 -6 12 -23 12 -39 0
-22 -7 -32 -25 -41 -22 -10 -29 -9 -48 10 -20 20 -20 23 -5 39 14 13 20 14 32
3 20 -16 20 -30 0 -30 -8 0 -13 -4 -9 -10 10 -16 36 2 33 23 -4 29 -33 45 -55
31 -23 -14 -30 -74 -9 -74 8 0 28 -11 43 -25 52 -46 58 -50 66 -47 5 1 6 -2 2
-8 -10 -16 -28 -12 -79 20 -55 35 -79 79 -64 121 15 44 67 57 106 27z m42
-124 c0 -7 -8 -10 -20 -7 -28 7 -34 21 -19 39 12 14 14 14 26 -2 7 -10 13 -23
13 -30z m223 -281 c-14 -3 -23 -11 -22 -21 0 -11 3 -12 6 -4 6 17 33 15 33 -2
0 -20 -27 -27 -40 -11 -17 21 -5 45 22 44 l23 -2 -22 -4z"/>
<path d="M1174 558 l-19 -23 23 19 c21 18 27 26 19 26 -2 0 -12 -10 -23 -22z"/>
<path d="M149 283 l-24 -28 30 25 c17 14 32 26 34 28 2 1 0 2 -6 2 -5 0 -20
-12 -34 -27z"/>
<path d="M268 284 c-4 -3 -14 -7 -25 -8 -29 -4 -25 -60 5 -64 12 -2 22 -10 22
-18 0 -11 -6 -14 -22 -9 -21 5 -21 5 2 -9 14 -9 21 -15 15 -15 -17 -1 -40 17
-40 31 -1 7 -6 12 -12 11 -6 -1 -10 3 -10 10 1 47 -6 50 -24 12 -10 -22 -19
-34 -19 -27 0 6 -7 12 -15 12 -23 0 -18 -42 9 -83 14 -20 22 -38 18 -40 -4 -2
0 -2 8 1 8 3 25 4 37 3 13 0 27 8 33 18 13 26 13 34 -2 25 -7 -4 -8 -3 -4 4
10 17 71 25 94 13 16 -8 21 -21 20 -50 0 -41 7 -61 23 -61 6 0 6 7 0 19 -12
21 -1 38 43 65 25 16 28 22 23 53 -7 42 -39 80 -84 99 -33 14 -85 19 -95 8z
m81 -15 c33 -12 51 -41 51 -83 0 -37 -22 -49 -56 -32 -16 8 -37 17 -46 20 -10
3 -18 13 -18 22 0 10 -8 26 -17 37 -17 18 -17 19 2 33 23 17 42 18 84 3z m-96
-36 c7 -9 5 -13 -7 -13 -11 0 -16 8 -15 28 0 15 3 21 6 12 3 -8 10 -21 16 -27z
m-71 -55 c-20 -20 -14 -25 22 -23 19 1 32 -3 29 -7 -3 -5 -11 -7 -18 -4 -18 7
-27 -5 -14 -20 7 -8 6 -14 -2 -20 -7 -4 -20 2 -31 15 -17 22 -17 25 -1 52 9
15 19 26 22 24 2 -3 -1 -11 -7 -17z m-35 -10 c-3 -8 -6 -5 -6 6 -1 11 2 17 5
13 3 -3 4 -12 1 -19z"/>
<path d="M177 128 c19 -21 31 -25 14 -5 -6 8 -9 16 -6 19 3 2 -2 5 -10 5 -13
0 -13 -3 2 -19z"/>
<path d="M1110 272 c-41 -20 -82 -87 -74 -120 4 -12 21 -30 40 -41 45 -27 46
-57 2 -70 -26 -7 -28 -9 -10 -10 36 -2 65 35 59 76 -5 29 -3 35 19 43 41 16
58 11 79 -23 12 -18 29 -32 40 -32 11 0 24 -4 28 -10 5 -6 7 -3 4 7 -3 9 3 24
14 34 10 9 19 22 19 28 0 5 -16 -5 -35 -24 -19 -18 -38 -31 -42 -27 -3 4 0 7
8 7 8 1 1 8 -15 16 -22 13 -26 18 -15 25 11 7 9 9 -6 9 -14 1 -10 5 14 15 23
11 31 20 27 31 -3 9 -6 17 -6 19 0 2 -10 1 -22 -1 -13 -2 -17 -2 -10 2 19 9
14 42 -7 54 -29 15 -71 12 -111 -8z m110 -2 c13 -8 13 -13 -3 -39 -9 -16 -17
-36 -17 -45 0 -10 -9 -16 -23 -16 -12 0 -32 -7 -44 -15 -19 -13 -23 -13 -37 1
-20 19 -20 37 0 75 22 43 86 63 124 39z m40 -69 c0 -11 -39 -21 -45 -11 -2 4
-2 10 2 14 10 9 43 7 43 -3z"/>
<path d="M1265 234 c8 -20 13 -40 10 -44 -3 -4 3 -14 12 -21 15 -12 16 -12 10
4 -4 10 -3 16 1 13 4 -3 8 11 8 31 0 20 -2 31 -4 25 -5 -17 -22 -15 -22 2 0 8
-7 16 -15 20 -13 5 -13 1 0 -30z"/>
<path d="M1320 218 c0 -9 5 -29 10 -44 9 -23 7 -31 -11 -51 -13 -12 -18 -23
-12 -23 15 0 43 45 43 67 -1 25 -29 74 -30 51z"/>
<path d="M1372 185 c0 -16 2 -22 5 -12 2 9 2 23 0 30 -3 6 -5 -1 -5 -18z"/>
<path d="M1250 170 c-13 -9 -13 -10 0 -11 8 -1 18 -1 21 -1 3 1 6 -6 6 -14 0
-10 -4 -11 -11 -4 -5 5 -15 10 -20 10 -6 0 -2 -7 8 -15 18 -13 22 -13 43 7 13
12 23 26 23 32 0 6 -5 3 -11 -7 -10 -17 -12 -17 -28 -3 -11 10 -21 12 -31 6z"/>
<path d="M111 159 c-1 -9 7 -25 17 -36 9 -10 14 -14 10 -8 -4 6 -12 22 -17 36
-6 15 -10 18 -10 8z"/>
<path d="M516 117 c3 -10 9 -15 12 -12 3 3 0 11 -7 18 -10 9 -11 8 -5 -6z"/>
<path d="M1340 108 c-12 -22 -12 -22 6 -6 10 10 15 20 12 24 -4 3 -12 -5 -18
-18z"/>
<path d="M408 33 c7 -3 16 -2 19 1 4 3 -2 6 -13 5 -11 0 -14 -3 -6 -6z"/>
</g>
</svg>
