<?xml version="1.0" standalone="no"?>
<!DOCTYPE svg PUBLIC "-//W3C//DTD SVG 1.1//EN" "http://www.w3.org/Graphics/SVG/1.1/DTD/svg11.dtd" >
<svg xmlns="http://www.w3.org/2000/svg">
<metadata></metadata>
<defs>
<font id="monofontoregular" horiz-adv-x="1024" >
<font-face units-per-em="2048" ascent="1556" descent="-492" />
<missing-glyph horiz-adv-x="500" />
<glyph horiz-adv-x="0" />
<glyph unicode="&#xd;" />
<glyph />
<glyph unicode=" " />
<glyph unicode="!" d="M379 147q0 33 9 64t26.5 55.5t42 38.5t57.5 14q57 0 94 -50t37 -122q0 -74 -36 -120.5t-95 -46.5q-61 0 -98 45t-37 122zM395 516v969h236v-969h-236z" />
<glyph unicode="&#x22;" d="M313 1006v479h125v-479h-125zM584 1006v479h129v-479h-129z" />
<glyph unicode="#" d="M37 412l39 178h149l70 305h-160l39 178h158l86 412h157l-83 -412h188l90 412h156l-88 -412h149l-39 -178h-147l-64 -305h152l-37 -178h-154l-90 -412h-157l90 412h-193l-88 -412h-158l86 412h-151zM383 586h197l63 309h-194z" />
<glyph unicode="$" d="M102 387h244q10 -80 56.5 -118t144.5 -38q70 0 112.5 43t42.5 115q0 61 -32.5 106.5t-120.5 88.5q-76 37 -154 80t-151 104q-68 59 -99.5 132t-31.5 187q0 168 84 275.5t233 134.5v195h164v-191q168 -16 248 -116.5t84 -270.5h-240q4 78 -43 121t-123 43q-86 0 -128 -38 t-42 -110q0 -57 24.5 -96t90.5 -78q45 -29 94 -50t96 -44.5t93.5 -52.5t85.5 -68q66 -63 92 -137t26 -172q0 -193 -92 -311.5t-266 -136.5v-191h-164v195q-156 23 -235.5 121t-92.5 278z" />
<glyph unicode="%" d="M-14 891v412q0 96 49 155.5t174 59.5q127 0 176 -61.5t49 -153.5v-410q0 -96 -49 -157.5t-176 -61.5q-125 0 -174 61.5t-49 155.5zM0 0l864 1485h160l-862 -1485h-162zM0 0zM141 895q0 -76 68 -75q35 0 51.5 18.5t16.5 61.5v395q0 80 -68 80t-68 -76v-404zM596 184v412 q0 96 49 155.5t174 59.5q127 0 176 -61.5t49 -153.5v-410q0 -96 -49 -157.5t-176 -61.5q-125 0 -174 61.5t-49 155.5zM751 188q0 -76 68 -75q35 0 51.5 18.5t16.5 61.5v395q0 80 -68 80t-68 -76v-404z" />
<glyph unicode="&#x26;" d="M37 383q0 301 250 473q-53 86 -86 166t-33 172q0 68 16.5 124t50 98t87 65.5t129.5 23.5q154 0 220 -83t66 -226q0 -104 -51 -196.5t-149 -178.5l180 -295l170 219l125 -188l-189 -229l193 -328h-252l-84 158q-61 -92 -137 -135t-185 -43q-70 0 -129 26.5t-102 78.5 t-66.5 127t-23.5 171zM248 403q0 -80 34.5 -129t100.5 -49q53 0 94 32t88 93l-184 326q-70 -55 -101.5 -121t-31.5 -152zM360 1210q0 -88 82 -217q119 106 119 217q0 55 -24.5 92t-77.5 37t-76 -36.5t-23 -92.5z" />
<glyph unicode="'" d="M449 1006v479h129v-479h-129z" />
<glyph unicode="(" d="M444 635q0 522 269 1040l157 -102q-55 -109 -97 -227.5t-69.5 -241.5t-42 -244t-14.5 -231q0 -111 14.5 -229.5t42 -240.5t69.5 -241t97 -225l-157 -103q-268 520 -269 1045z" />
<glyph unicode=")" d="M156 -307q55 106 96 225t68.5 241t42 240.5t14.5 229.5t-14.5 231.5t-42 243.5t-68.5 241.5t-96 227.5l157 102q266 -514 267 -1040q0 -526 -267 -1045z" />
<glyph unicode="*" d="M4 1026l70 215l381 -180l-58 424h226l-54 -416l385 184l70 -215l-412 -77l295 -310l-184 -133l-201 369l-203 -377l-184 133l289 307z" />
<glyph unicode="+" d="M55 655v164h375v373h164v-373h375v-164h-375v-376h-164v376h-375z" />
<glyph unicode="," d="M350 -238l78 551l213 -55l-117 -537z" />
<glyph unicode="-" d="M195 643v219h632v-219h-632z" />
<glyph unicode="." d="M379 139q0 66 35 115t100 49q59 0 95 -50.5t36 -113.5q0 -66 -33.5 -112.5t-97.5 -46.5q-66 0 -100.5 47t-34.5 112z" />
<glyph unicode="/" d="M16 -346l807 1962h185l-807 -1962h-185z" />
<glyph unicode="0" d="M119 358v768q0 82 20.5 152t66.5 120t121.5 78.5t186.5 28.5t185.5 -28.5t120.5 -79.5t66.5 -121t20.5 -152v-764q0 -82 -20.5 -151.5t-66.5 -120.5t-120.5 -79.5t-185.5 -28.5t-186.5 28.5t-121.5 78.5t-66.5 119.5t-20.5 151.5zM367 367q0 -86 36.5 -124t110.5 -38 q72 0 107.5 39t35.5 131v735q0 92 -35.5 131t-107.5 39q-74 0 -110.5 -38t-36.5 -124v-751z" />
<glyph unicode="1" d="M203 971v268l477 266v-1505h-240v1110z" />
<glyph unicode="2" d="M113 1042q20 463 401 463q90 0 164 -31.5t126 -88t80.5 -134.5t28.5 -170q0 -164 -90 -311l-297 -494h377v-276h-780l475 870q35 66 54.5 115t19.5 84q0 104 -44 146t-114 42q-156 0 -162 -215h-239z" />
<glyph unicode="3" d="M80 440h233q0 -113 50.5 -169t142.5 -56q88 0 143.5 63.5t55.5 167.5q0 53 -16.5 93.5t-42 68t-59.5 44t-67 20.5v190q33 2 63.5 16.5t55.5 41t40 65.5t15 90q0 104 -51 156.5t-127 52.5q-72 0 -119 -40t-61 -122h-215q6 84 33.5 155t78 121t125 78.5t172.5 28.5 q82 0 151 -30.5t120 -86t79.5 -131t28.5 -165.5q0 -127 -44 -201t-122 -115q98 -43 149.5 -121t51.5 -221q0 -102 -30.5 -186t-87 -143.5t-135.5 -92t-175 -32.5q-102 0 -183 32.5t-137.5 93t-86 145.5t-29.5 189z" />
<glyph unicode="4" d="M68 324v258l415 903h324v-926h158v-235h-158v-324h-234v324h-505zM242 559h346v746z" />
<glyph unicode="5" d="M92 289l211 110q49 -152 193 -151q84 0 140 59.5t56 167.5q0 117 -51 174.5t-139 57.5q-59 0 -98 -28t-58 -67h-209v873h737v-260h-528v-342q51 29 107.5 43t97.5 14q92 0 163.5 -34t122 -94t76 -143.5t25.5 -183.5q0 -106 -33 -198t-93 -161t-144 -107.5t-189 -38.5 q-141 0 -239.5 76.5t-147.5 232.5z" />
<glyph unicode="6" d="M86 459q0 121 37 230.5t113 248.5l303 547h274l-334 -596q25 4 49.5 7t46.5 3q168 0 265.5 -117.5t97.5 -326.5q0 -115 -34 -203t-92 -148.5t-136 -92t-168 -31.5t-167 35.5t-134 100t-89 152.5t-32 191zM332 455q0 -92 49 -158t129 -66q78 0 131 65t53 163 q0 100 -53 160.5t-131 60.5q-80 0 -129 -65.5t-49 -159.5z" />
<glyph unicode="7" d="M78 1225v260h893l-510 -1485h-307l467 1225h-543z" />
<glyph unicode="8" d="M76 436q0 63 18.5 118.5t49 99.5t68.5 76t77 50q-86 57 -122 129t-36 185q0 88 23.5 162.5t71.5 130t120 87t168 31.5q94 0 166 -32.5t120 -90t71.5 -132t23.5 -156.5q0 -219 -156 -316q92 -41 150.5 -127t58.5 -217q0 -211 -105.5 -332.5t-328.5 -121.5 q-113 0 -194.5 32.5t-136 92t-81 143.5t-26.5 188zM315 442q0 -98 52.5 -162.5t148.5 -64.5q47 0 83 18.5t60.5 50t38 72.5t13.5 86q0 100 -50.5 166t-146.5 66q-98 0 -148.5 -65.5t-50.5 -166.5zM342 1077q0 -41 11.5 -78.5t33 -66.5t54 -46.5t75.5 -17.5q86 0 128 57.5 t42 151.5q0 39 -11 77t-32.5 67.5t-53.5 47t-75 17.5t-75.5 -17.5t-54.5 -47t-32 -67.5t-10 -77z" />
<glyph unicode="9" d="M86 1028q0 115 34 204t92 149.5t137 92t169 31.5q88 0 165 -35.5t134 -100t89 -153t32 -192.5q0 -59 -9 -115.5t-27.5 -114t-46.5 -118t-67 -129.5l-301 -547h-276l336 596q-25 -4 -49.5 -7t-48.5 -3q-168 0 -265.5 117.5t-97.5 324.5zM332 1024q0 -98 52 -158.5 t132 -60.5q39 0 72 17.5t56.5 48t36.5 70.5t13 87t-13 88t-36.5 72t-56.5 48t-72 17q-80 0 -132 -64.5t-52 -164.5z" />
<glyph unicode=":" d="M379 147q0 66 35 117t100 51q59 0 95 -51t36 -117q0 -72 -33.5 -119.5t-97.5 -47.5q-66 0 -100.5 49t-34.5 118zM379 877q0 66 35 116.5t100 50.5q63 0 97 -50.5t34 -116.5q0 -70 -36 -119t-95 -49q-61 0 -98 47t-37 121z" />
<glyph unicode=";" d="M324 -236l75 560l215 -56l-116 -547zM391 877q0 66 36 116.5t101 50.5q59 0 97.5 -50.5t38.5 -116.5q0 -70 -36 -119t-100 -49q-66 0 -101.5 49t-35.5 119z" />
<glyph unicode="&#x3c;" d="M55 643v188l912 455v-182l-744 -367l744 -364v-183z" />
<glyph unicode="=" d="M55 428v164h914v-164h-914zM55 885v164h914v-164h-914z" />
<glyph unicode="&#x3e;" d="M55 190v183l744 364l-744 367v182l912 -455v-188z" />
<glyph unicode="?" d="M147 1118q2 84 29 154.5t74 123t113.5 81t150.5 28.5q94 0 164 -29.5t115 -82t66.5 -123t21.5 -152.5q0 -72 -16.5 -135t-57.5 -113q-45 -55 -84 -92t-68.5 -68.5t-47 -64.5t-17.5 -82v-28h-236v73q0 68 31 140.5t109 140.5q39 35 65.5 62.5t42.5 53t22.5 55.5t6.5 66 q0 59 -28 103.5t-95 44.5q-119 0 -131 -156h-230zM342 150q0 66 34 117.5t99 51.5q66 0 100.5 -51.5t34.5 -117.5q0 -76 -37.5 -123t-97.5 -47q-66 0 -99.5 51t-33.5 119z" />
<glyph unicode="@" d="M31 479q0 203 34.5 348.5t103.5 237.5t169 136t229 44q217 0 328 -139t111 -430q0 -96 -7.5 -184.5t-30 -155t-67.5 -105t-119 -38.5q-41 0 -77.5 18t-61.5 51q-25 -29 -58.5 -42t-66.5 -13q-80 0 -131 65.5t-51 190.5q0 127 46 195.5t136 68.5q68 0 111 -43l10 41h80 v-334q0 -57 14.5 -87t50.5 -30q18 0 38 12.5t36 51.5t27.5 110.5t11.5 192.5q0 125 -24.5 212t-68.5 140.5t-106.5 78t-138.5 24.5q-84 0 -154.5 -36t-121 -109.5t-78 -187.5t-27.5 -269q0 -113 24.5 -212.5t66.5 -179t97.5 -139t116.5 -92.5l-73 -145 q-176 104 -277.5 288.5t-101.5 464.5zM438 463q0 -131 90 -131q63 0 101 65v154q-37 51 -94 51q-45 0 -71 -33.5t-26 -105.5z" />
<glyph unicode="A" d="M66 0l313 1485h264l315 -1485h-282l-51 240h-242l-51 -240h-266zM422 471h162l-78 471z" />
<glyph unicode="B" d="M109 0v1485h411q184 0 277.5 -106.5t93.5 -278.5q0 -135 -49 -213t-150 -125q104 -35 165 -120t61 -220q0 -217 -103.5 -319.5t-327.5 -102.5h-378zM348 229h127q47 0 82 17.5t58.5 48.5t36 72t12.5 86q0 100 -55.5 163.5t-141.5 63.5h-119v-451zM348 842h92 q96 0 146.5 48t50.5 169q0 68 -13.5 109.5t-38 65t-60.5 32t-81 8.5h-96v-432z" />
<glyph unicode="C" d="M100 414v657q0 219 105.5 326.5t308.5 107.5q369 0 408 -393h-256q-6 80 -50.5 116t-101.5 36q-76 0 -119 -49.5t-43 -151.5v-641q0 -102 43 -151.5t119 -49.5q57 0 101 35t51 117h256q-39 -393 -408 -393q-203 0 -308.5 107.5t-105.5 326.5z" />
<glyph unicode="D" d="M100 8v1477h420q406 0 406 -455v-575q0 -446 -406 -447h-420zM346 244h174q160 0 160 225v545q0 106 -42 176t-118 70h-174v-1016z" />
<glyph unicode="E" d="M137 0v1485h754v-236h-490v-379h387v-239h-387v-381h490v-250h-754z" />
<glyph unicode="F" d="M137 0v1485h754v-236h-490v-379h406v-239h-406v-631h-264z" />
<glyph unicode="G" d="M102 369v704q0 219 108.5 325.5t305.5 106.5q174 0 283.5 -95t122.5 -298h-256q0 78 -44 115t-106 37q-74 0 -118 -54.5t-44 -146.5v-657q0 -98 44 -141.5t118 -43.5q72 0 113 43t41 142v221h-121v213h356v-840h-194v131q-16 -57 -79 -104t-194 -47q-68 0 -129 27.5 t-107 78.5t-73 123t-27 160z" />
<glyph unicode="H" d="M104 0v1485h263v-604h286v604h267v-1485h-267v627h-286v-627h-263z" />
<glyph unicode="I" d="M166 0v238h223v1011h-223v236h694v-236h-219v-1011h219v-238h-694z" />
<glyph unicode="J" d="M141 0v250h281q39 0 76 12t65.5 41t46 78t17.5 121v747h-140v236h408v-971q0 -242 -108.5 -378t-329.5 -136h-316z" />
<glyph unicode="K" d="M123 0v1485h266v-666l291 666h260l-326 -672l351 -813h-281l-295 696v-696h-266z" />
<glyph unicode="L" d="M137 0v1485h262v-1235h516v-250h-778z" />
<glyph unicode="M" d="M78 0v1485h268l168 -572l182 572h250v-1485h-217v911l-215 -651l-215 651v-911h-221z" />
<glyph unicode="N" d="M92 0v1485h303l301 -869v869h236v-1485h-260l-338 868v-868h-242z" />
<glyph unicode="O" d="M84 453v577q0 217 108.5 346t321.5 129q205 0 315.5 -124t110.5 -351v-577q0 -225 -110.5 -349t-315.5 -124q-213 0 -321.5 129t-108.5 344zM336 414q0 -109 51 -159t127 -50q74 0 125 52t51 157v657q0 104 -51 156.5t-125 52.5q-76 0 -127 -51t-51 -158v-657z" />
<glyph unicode="P" d="M104 0v1485h420q106 0 187.5 -35t136.5 -98.5t84 -152.5t29 -200q0 -248 -108 -370.5t-333 -122.5h-153v-506h-263zM367 756h122q203 0 203 248q0 125 -48 184t-155 59h-122v-491z" />
<glyph unicode="Q" d="M84 481v549q0 217 108.5 346t321.5 129q205 0 315.5 -124t110.5 -351v-549q0 -307 -195 -420l109 -299h-219l-90 244h-31q-213 0 -321.5 129t-108.5 346zM336 440q0 -106 51 -157.5t127 -51.5q74 0 125 52.5t51 156.5v631q0 104 -51 156.5t-125 52.5q-76 0 -127 -51 t-51 -158v-631z" />
<glyph unicode="R" d="M96 0v1485h412q205 0 321.5 -116t116.5 -327q0 -184 -81 -281t-214 -134l326 -627h-332l-283 588v-588h-266zM362 756h123q90 0 140.5 69.5t50.5 178.5q0 141 -55.5 192t-165.5 51h-93v-491z" />
<glyph unicode="S" d="M102 387h244q10 -80 56.5 -118t144.5 -38q70 0 112.5 43t42.5 115q0 61 -32.5 106.5t-120.5 88.5q-76 37 -154 80t-151 104q-68 59 -99.5 132t-31.5 187q0 195 110.5 306.5t302.5 111.5q205 0 300.5 -102.5t99.5 -288.5h-240v12q0 69 -43 109q-47 43 -123 43 q-86 0 -128 -38t-42 -110q0 -57 24.5 -96t90.5 -78q45 -29 94 -50t96 -44.5t93.5 -52.5t85.5 -68q66 -63 92 -137t26 -172q0 -207 -108.5 -329.5t-311.5 -122.5q-207 0 -310 101t-120 306z" />
<glyph unicode="T" d="M55 1235v250h914v-250h-324v-1235h-266v1235h-324z" />
<glyph unicode="U" d="M78 422v1063h254v-1049q0 -111 53 -168t129 -57q74 0 128 57.5t54 167.5v1049h250v-1063q0 -229 -115.5 -335.5t-316.5 -106.5q-207 0 -321.5 108.5t-114.5 333.5z" />
<glyph unicode="V" d="M39 1485h272l209 -969l213 969h252l-340 -1485h-262z" />
<glyph unicode="W" d="M20 1485h271l67 -815l156 565l154 -565l69 815h269l-191 -1485h-178l-123 627l-127 -627h-184z" />
<glyph unicode="X" d="M59 0l299 743l-299 742h312l151 -457l150 457h293l-301 -744l301 -741h-316l-143 475l-146 -475h-301z" />
<glyph unicode="Y" d="M25 1485h313l180 -543l178 543h305l-356 -893v-592h-266v592z" />
<glyph unicode="Z" d="M45 0l537 1247h-500v238h883l-516 -1235h495v-250h-899z" />
<glyph unicode="[" d="M526 -408v2083h389v-164h-190v-1755h190v-164h-389z" />
<glyph unicode="\" d="M16 1616h185l807 -1962h-185z" />
<glyph unicode="]" d="M111 -244h190v1755h-190v164h389v-2083h-389v164z" />
<glyph unicode="^" d="M80 819l338 666h188l338 -666h-182l-250 498l-252 -498h-180z" />
<glyph unicode="_" d="M0 -248h1024v-160h-1024v160z" />
<glyph unicode="`" d="M268 1503h279l211 -362h-215z" />
<glyph unicode="a" d="M98 299q0 166 82 244t246 78q111 0 172 -15.5t94 -44.5v111q0 80 -46 123t-126 43q-125 0 -164 -113l-217 70q23 72 64 120t92 76.5t109.5 39.5t113.5 11q111 0 188.5 -25.5t127 -73.5t72 -115.5t22.5 -149.5v-678h-211v176q-35 -80 -103.5 -138t-181.5 -58 q-90 0 -153.5 23.5t-103.5 65.5t-58.5 100t-18.5 130zM348 299q0 -68 42 -97.5t114 -29.5q63 0 116.5 46t71.5 104v69q-31 18 -78 32.5t-100 14.5q-90 0 -128 -40t-38 -99z" />
<glyph unicode="b" d="M102 0v1485h236v-680q47 133 123 185t157 52q94 0 159 -35.5t105 -105.5t57 -169t17 -226q0 -141 -25.5 -241.5t-69.5 -163t-105.5 -92t-134.5 -29.5q-86 0 -165 57t-126 180v-217h-228zM338 514q0 -72 13.5 -131t38 -103t59 -69t75.5 -25q82 0 133.5 87t51.5 243 t-49.5 238t-135.5 82q-41 0 -75.5 -25t-59 -68t-38 -102t-13.5 -127z" />
<glyph unicode="c" d="M78 510q0 117 38 214t107.5 168t167.5 110.5t219 39.5q57 0 108.5 -13t91.5 -32.5t67.5 -42t40.5 -43.5l-136 -184q-29 35 -73.5 56.5t-118.5 21.5q-113 0 -189.5 -71.5t-76.5 -225.5q0 -143 73.5 -218t192.5 -75q53 0 112.5 26.5t94.5 80.5l139 -185 q-61 -82 -146 -119.5t-202 -37.5t-211 38.5t-160.5 108.5t-102.5 168t-36 215z" />
<glyph unicode="d" d="M68 506q0 127 18 226t58 169t104.5 105.5t157.5 35.5q82 0 157.5 -52t124.5 -185v680h236v-1485h-228v217q-49 -123 -128 -180t-165 -57q-74 0 -135 29.5t-105 92t-69.5 163t-25.5 241.5zM317 516q0 -156 50.5 -243t134.5 -87q41 0 74.5 25t58 69t39 103t14.5 131 q0 68 -14.5 127t-39 102t-58 68t-74.5 25q-88 0 -136.5 -82t-48.5 -238z" />
<glyph unicode="e" d="M63 504q0 127 34 227t94.5 169t143.5 105.5t183 36.5q207 0 320.5 -151.5t122.5 -431.5h-648q10 -135 66.5 -198.5t155.5 -63.5q117 0 163 110l228 -55q-53 -137 -155.5 -204.5t-246.5 -67.5q-102 0 -187 37.5t-145.5 107.5t-94.5 166t-34 213zM309 563h414 q-4 125 -60.5 192.5t-142.5 67.5q-94 0 -147.5 -67.5t-63.5 -192.5z" />
<glyph unicode="f" d="M92 801v219h217v117q0 188 79 268t239 80h323v-242h-278q-72 0 -98.5 -29.5t-26.5 -95.5v-98h244v-219h-244v-801h-238v801h-217z" />
<glyph unicode="g" d="M68 -270l100 164q125 -131 283 -132q111 0 178 60.5t67 206.5v200q-49 -133 -115.5 -191t-156.5 -58q-76 0 -140.5 37.5t-112.5 106.5t-74.5 166t-26.5 218q0 115 24.5 213t71.5 170t112.5 111.5t149.5 39.5q109 0 169 -54t103 -173v205h224v-1002q0 -207 -115 -326.5 t-358 -119.5q-250 0 -383 158zM317 510q0 -68 13.5 -125t38 -100t59.5 -66.5t76 -23.5t75.5 24.5t59.5 66.5t39 99t14 123q0 70 -14 129t-40 103t-60.5 69t-73.5 25q-41 0 -76 -25t-59.5 -69t-38 -103t-13.5 -127z" />
<glyph unicode="h" d="M119 0v1485h237v-676q53 127 136 180t180 53q129 0 193.5 -84t64.5 -235v-723h-238v618q0 98 -41 150.5t-125 52.5q-86 0 -128 -51t-42 -149v-621h-237z" />
<glyph unicode="i" d="M186 0v238h222v544h-222v238h457v-782h195v-238h-652zM391 1341q0 68 35 116t100 48q59 0 95 -49t36 -115q0 -63 -33.5 -111t-97.5 -48q-66 0 -100.5 48t-34.5 111z" />
<glyph unicode="j" d="M164 -160h276q96 0 97 144v798h-293v238h530v-1036q-4 -391 -305 -392h-305v248zM522 1341q0 68 35 116t98 48q61 0 97 -49t36 -115q0 -63 -33.5 -111t-99.5 -48q-63 0 -98 48t-35 111z" />
<glyph unicode="k" d="M113 0v1485h237v-895l283 430h258l-305 -449l348 -571h-297l-287 492v-492h-237z" />
<glyph unicode="l" d="M221 1249v236h455v-1485h-238v1249h-217z" />
<glyph unicode="m" d="M55 0v1020h226v-162q6 35 19 67.5t33.5 59.5t46.5 42t58 15q68 0 101.5 -46t50.5 -128q23 78 71 126t134 48q82 0 128 -63.5t46 -169.5v-809h-238v741q0 82 -65 82q-72 0 -72 -82v-741h-164v741q0 82 -65 82q-70 0 -70 -82v-741h-240z" />
<glyph unicode="n" d="M119 0v1020h237v-211q53 127 136 180t180 53q129 0 193.5 -84t64.5 -235v-723h-238v618q0 98 -41 150.5t-125 52.5q-86 0 -128 -51t-42 -149v-621h-237z" />
<glyph unicode="o" d="M74 510q0 113 30.5 210t88 169t139.5 112.5t182 40.5q98 0 179 -40.5t137.5 -113.5t88 -170t31.5 -208q0 -113 -31.5 -210t-89 -168t-138.5 -111.5t-177 -40.5q-98 0 -180 39.5t-139.5 110.5t-89 168t-31.5 212zM324 508q0 -61 14 -115.5t39.5 -93.5t60.5 -61.5t76 -22.5 q86 0 137 82t51 213q0 129 -52 212t-136 83q-43 0 -79 -22.5t-60.5 -62.5t-37.5 -94.5t-13 -117.5z" />
<glyph unicode="p" d="M76 -408v1428h229v-217q47 123 126 181t165 58q74 0 135.5 -29.5t105.5 -92t69.5 -163t25.5 -241.5q0 -127 -18.5 -227.5t-58.5 -169t-104.5 -104t-156.5 -35.5q-82 0 -158 51t-123 184v-623h-237zM313 508q0 -68 13.5 -127t38 -103.5t59.5 -69t76 -24.5q86 0 135 83 t49 239t-51 242t-133 86q-41 0 -76 -25t-59.5 -68t-38 -103t-13.5 -130z" />
<glyph unicode="q" d="M68 516q0 141 25.5 241.5t69.5 163t105.5 92t134.5 29.5q86 0 165 -58t128 -181v217h228v-1428h-236v623q-49 -133 -125 -184t-157 -51q-92 0 -157 35.5t-105 104t-58 169t-18 227.5zM317 506q0 -156 48.5 -239t136.5 -83q41 0 74.5 24.5t58 69t39 103.5t14.5 127 q0 70 -14.5 130t-39 103t-58 68t-74.5 25q-84 0 -134.5 -86t-50.5 -242z" />
<glyph unicode="r" d="M123 0v1020h225v-223q57 135 131 190t172 55q117 0 180.5 -66.5t71.5 -170.5l-235 -119q-27 119 -140 119q-78 0 -122 -53.5t-44 -135.5v-616h-239z" />
<glyph unicode="s" d="M137 268h250q0 -59 35 -87.5t98 -28.5q76 0 103.5 32.5t27.5 67.5q0 47 -30.5 78.5t-112.5 66.5q-78 31 -143.5 58.5t-120.5 72.5q-47 37 -75 89.5t-28 117.5q0 80 29 138.5t78 96.5t116.5 55t145.5 17q143 0 242.5 -68.5t115.5 -199.5h-241q-4 53 -34 81t-97 28 q-66 0 -93.5 -29t-27.5 -66q0 -51 31.5 -79.5t117.5 -65.5q104 -43 167 -69.5t104 -55.5q47 -31 74.5 -82t27.5 -127t-28.5 -136t-79 -103t-121 -66.5t-154.5 -23.5q-174 0 -273.5 70.5t-103.5 217.5z" />
<glyph unicode="t" d="M104 801v219h222v280h235v-280h236v-219h-236v-467q0 -45 17.5 -69.5t64.5 -24.5h242v-240h-297q-141 0 -201.5 67.5t-60.5 206.5v527h-222z" />
<glyph unicode="u" d="M98 377v643h238v-625q0 -51 15.5 -86t40 -57.5t56 -32.5t66.5 -10q33 0 64.5 10t56 32.5t40 57.5t15.5 86v625h238v-643q0 -188 -113 -292.5t-301 -104.5q-190 0 -303 104t-113 293z" />
<glyph unicode="v" d="M51 1020h268l205 -684l201 684h250l-324 -1020h-276z" />
<glyph unicode="w" d="M29 1020h260l102 -559l129 559l127 -559l103 559h247l-202 -1020h-187l-96 395l-98 -395h-185z" />
<glyph unicode="x" d="M82 0l278 516l-262 504h258l158 -330l160 330h258l-273 -494l283 -526h-262l-170 354l-162 -354h-266z" />
<glyph unicode="y" d="M51 1020h268l205 -711l203 711h246l-428 -1428h-264l110 357z" />
<glyph unicode="z" d="M82 0l453 799h-412v221h801l-441 -799h426v-221h-827z" />
<glyph unicode="{" d="M369 532v203h8q100 0 148 57.5t48 206.5q0 43 -3 96.5t-7 109t-7 108.5t-3 98q0 129 70.5 196.5t230.5 67.5h27.5t31.5 -2v-178h-20q-76 0 -114 -44t-38 -124q0 -104 7.5 -208.5t7.5 -209.5q0 -111 -56.5 -182.5t-146.5 -93.5q90 -23 146.5 -93.5t56.5 -181.5 q0 -104 -7.5 -208.5t-7.5 -208.5q0 -80 38 -124t114 -44h20v-179q-16 -2 -31.5 -2h-27.5q-160 0 -230.5 67t-70.5 196q0 45 3 99t7 109.5t7 107.5t3 95q0 150 -48 208t-148 58h-8z" />
<glyph unicode="|" d="M430 -346v1962h164v-1962h-164z" />
<glyph unicode="}" d="M113 -227h20q74 0 113 44t39 124q0 104 -8.5 208.5t-8.5 208.5q0 111 57.5 181.5t145.5 93.5q-88 23 -145.5 94.5t-57.5 181.5q0 104 8.5 209t8.5 209q0 80 -39 124t-113 44h-20v178q16 2 31.5 2h27.5q158 0 228.5 -67.5t70.5 -196.5q0 -45 -3 -98t-7 -108.5t-7 -109 t-3 -96.5q0 -150 49 -207t147 -57h8v-203h-8q-98 0 -147 -58t-49 -208q0 -43 3 -95t7 -107.5t7 -109.5t3 -99q0 -129 -70.5 -196t-228.5 -67h-27.5t-31.5 2v179z" />
<glyph unicode="~" d="M45 600v168q45 59 103.5 88t123.5 29q37 0 102.5 -19.5t138.5 -43t139.5 -43t103.5 -19.5q57 0 106 23.5t117 95.5v-168q-43 -59 -102.5 -88t-124.5 -29q-37 0 -102.5 19.5t-138.5 43t-139.5 43t-103.5 19.5q-29 0 -54.5 -5t-52 -18.5t-54 -36t-62.5 -59.5z" />
<glyph unicode="&#xa0;" />
<glyph unicode="&#xa1;" d="M379 930q0 72 36 120t97 48q59 0 96 -46t37 -122q0 -68 -35 -120t-98 -52q-59 0 -96 49t-37 123zM393 -408v969h236v-969h-236z" />
<glyph unicode="&#xa2;" d="M100 414v657q0 195 84 301.5t246 126.5v193h164v-193q291 -37 328 -387h-256q-6 80 -50.5 116t-101.5 36q-76 0 -119 -49.5t-43 -151.5v-641q0 -102 43 -151.5t119 -49.5q57 0 101 35t51 117h256q-37 -350 -328 -387v-193h-164v193q-162 20 -246 125.5t-84 302.5z" />
<glyph unicode="&#xa3;" d="M76 0v250h209q14 70 14 133q0 78 -19.5 143.5t-43.5 128.5h-144v164h84q-16 55 -27.5 115.5t-11.5 136.5q0 219 106.5 326.5t307.5 107.5q369 0 407 -393h-256q-4 80 -49 116t-102 36q-78 0 -120 -49.5t-42 -151.5q0 -78 10.5 -136.5t26.5 -107.5h412v-164h-351 q16 -49 27.5 -103t11.5 -128q0 -37 -3 -80t-11 -94h440v-250h-876z" />
<glyph unicode="&#xa4;" d="M-16 328l200 200q-35 92 -34 207q0 115 34 209l-200 203l116 117l170 -174q47 47 108.5 74.5t135.5 27.5q70 0 129 -26.5t105 -73.5l174 174l114 -117l-200 -201q41 -94 41 -213q0 -121 -39 -211l200 -198l-114 -117l-174 172q-45 -47 -105.5 -74.5t-130.5 -27.5 q-74 0 -135.5 27.5t-108.5 76.5l-170 -172zM324 733q0 -61 14 -115.5t39.5 -93.5t60.5 -61.5t76 -22.5q86 0 137 82t51 213q0 129 -52 212t-136 83q-43 0 -79 -22.5t-60.5 -62.5t-37.5 -94t-13 -118z" />
<glyph unicode="&#xa5;" d="M25 1485h313l180 -543l178 543h305l-305 -768h273v-164h-324v-188h324v-164h-324v-201h-266v201h-324v164h324v188h-324v164h275z" />
<glyph unicode="&#xa6;" d="M430 -346v719h164v-719h-164zM430 897v719h164v-719h-164z" />
<glyph unicode="&#xa7;" d="M86 -57h221q10 -72 51 -107t129 -35q63 0 101.5 39t38.5 105q0 55 -30 95t-108 81q-68 35 -138 72.5t-136 95.5q-61 53 -90 118.5t-29 170.5q0 111 41 192.5t115 130.5q-59 80 -59 225q0 176 99 277.5t273 101.5q184 0 270.5 -93t88.5 -263h-215q0 72 -40 110.5 t-110 38.5q-154 0 -153 -133q0 -53 22.5 -88t83.5 -71q39 -25 83 -44.5t87 -41t84 -48t76 -61.5q59 -57 82.5 -125t23.5 -154q0 -117 -37 -203.5t-108 -138.5q49 -90 49 -206q0 -188 -97.5 -300t-279.5 -112q-186 0 -279.5 91t-109.5 280zM311 616q0 -53 22 -87.5t81 -71.5 q51 -31 103 -53.5t101 -49.5q47 10 76 46t29 94q0 55 -29.5 95t-107.5 81q-39 18 -76 36.5t-76 41.5q-123 -10 -123 -132z" />
<glyph unicode="&#xa8;" d="M162 1294q0 66 34.5 115t100.5 49q59 0 95 -50.5t36 -113.5q0 -66 -34 -112.5t-97 -46.5q-66 0 -100.5 47t-34.5 112zM596 1294q0 66 35 115t100 49q59 0 96 -50.5t37 -113.5q0 -66 -34.5 -112.5t-98.5 -46.5q-66 0 -100.5 47t-34.5 112z" />
<glyph unicode="&#xa9;" d="M35 453v577q0 217 120.5 346t358.5 129q229 0 352 -124t123 -351v-577q0 -225 -123 -349t-352 -124q-238 0 -358.5 129t-120.5 344zM160 453q0 -160 88 -254.5t266 -94.5q170 0 261 91.5t91 257.5v577q0 168 -91 259t-261 91q-178 0 -266 -94t-88 -256v-577zM309 580v327 q0 217 207 217q182 0 203 -196h-129q-2 41 -23.5 58.5t-50.5 17.5q-82 0 -82 -101v-319q0 -100 82 -101q29 0 50.5 17.5t23.5 58.5h129q-20 -197 -203 -197q-207 0 -207 218z" />
<glyph unicode="&#xaa;" d="M276 1096q0 186 189 186q92 0 131 -22v36q0 78 -80 78q-57 0 -80 -65l-139 45q14 45 37.5 74.5t53.5 47t62.5 24.5t63.5 7q129 0 181.5 -55t52.5 -152v-376h-140v57q-20 -29 -54 -49.5t-85 -20.5q-104 0 -148.5 50.5t-44.5 134.5zM434 1096q0 -29 19.5 -41.5t54.5 -12.5 q29 0 53.5 21.5t34.5 48.5v27q-31 20 -84 20q-78 0 -78 -63z" />
<glyph unicode="&#xab;" d="M131 528v334l348 225v-215l-223 -180l223 -176v-213zM545 528v334l348 225v-215l-221 -180l221 -176v-213z" />
<glyph unicode="&#xac;" d="M55 655v164h914v-747h-164v583h-750z" />
<glyph unicode="&#xad;" d="M195 643v219h632v-219h-632z" />
<glyph unicode="&#xae;" d="M35 453v577q0 217 120.5 346t358.5 129q229 0 352 -124t123 -351v-577q0 -225 -123 -349t-352 -124q-238 0 -358.5 129t-120.5 344zM160 453q0 -160 88 -254.5t266 -94.5q170 0 261 91.5t91 257.5v577q0 168 -91 259t-261 91q-178 0 -266 -94t-88 -256v-577zM307 373v741 h205q102 0 160.5 -58.5t58.5 -162.5q0 -92 -40 -140t-107 -67l164 -313h-166l-144 295v-295h-131zM438 750h64q45 0 69.5 34.5t24.5 89.5q0 70 -27.5 94.5t-81.5 24.5h-49v-243z" />
<glyph unicode="&#xaf;" d="M139 1165v164h748v-164h-748z" />
<glyph unicode="&#xb0;" d="M221 1184q0 80 23.5 140t63.5 100t92.5 60.5t111.5 20.5t111.5 -20.5t92.5 -60.5t62.5 -100t22.5 -140t-22.5 -139.5t-62.5 -98.5t-92.5 -58.5t-111.5 -19.5t-111.5 19.5t-92.5 58.5t-63.5 98.5t-23.5 139.5zM346 1184q0 -104 44 -146.5t122 -42.5t122 42t44 147 q0 104 -44 150t-122 46t-122 -46t-44 -150z" />
<glyph unicode="&#xb1;" d="M55 0zM55 2h914v-164h-914v164zM55 655v164h375v373h164v-373h375v-164h-375v-376h-164v376h-375z" />
<glyph unicode="&#xb2;" d="M281 686zM281 687l268 483q37 68 37 102q0 49 -20.5 68.5t-53.5 19.5q-72 0 -74 -114h-151q14 272 225 272q104 0 166.5 -67t62.5 -173q0 -47 -14 -89t-37 -83l-147 -245h192v-174h-454z" />
<glyph unicode="&#xb3;" d="M266 674zM266 947h152q0 -121 90 -121q43 0 68.5 31.5t25.5 80.5q0 53 -30.5 80t-67.5 31v123q35 2 63.5 28.5t28.5 73.5q0 51 -22.5 77t-59.5 26q-72 0 -88 -88h-135q8 102 64.5 165.5t166.5 63.5q45 0 85 -17.5t69 -48t45 -73.5t16 -94q0 -66 -16 -105t-55 -63 q43 -27 67.5 -70t24.5 -115q0 -117 -66.5 -187.5t-177.5 -70.5q-117 0 -182.5 75t-65.5 198z" />
<glyph unicode="&#xb4;" d="M266 1141l209 362h279l-275 -362h-213z" />
<glyph unicode="&#xb6;" d="M41 1180q0 139 70.5 222t205.5 83h611v-1761h-164v1611h-184v-1611h-164v1144h-97q-278 1 -278 312zM211 1182q0 -156 127 -156h78v309h-78q-68 0 -97.5 -37.5t-29.5 -115.5z" />
<glyph unicode="&#xb7;" d="M379 561zM379 721q0 66 35 115t100 49q59 0 95 -50.5t36 -113.5q0 -66 -33.5 -112.5t-97.5 -46.5q-66 0 -100.5 47t-34.5 112z" />
<glyph unicode="&#xb8;" d="M350 -449l78 414l213 -53l-117 -404z" />
<glyph unicode="&#xb9;" d="M373 686zM373 1201v170l278 155v-839h-149v587z" />
<glyph unicode="&#xba;" d="M264 1204q0 63 17.5 118.5t49 95.5t78 62.5t103.5 22.5t102 -23.5t77 -63.5t49.5 -94.5t17.5 -117.5q0 -61 -17.5 -115.5t-50.5 -94.5t-78 -63.5t-100 -23.5t-101 22.5t-78 62.5t-50.5 94.5t-18.5 117.5zM422 1204q0 -61 24.5 -103t65.5 -42t64.5 41t23.5 104 q0 66 -23.5 107t-64.5 41t-65.5 -41t-24.5 -107z" />
<glyph unicode="&#xbb;" d="M131 303v213l221 176l-221 180v215l348 -225v-334zM545 303v213l221 176l-221 180v215l348 -225v-334z" />
<glyph unicode="&#xbc;" d="M-2 0l864 1485h160l-862 -1485h-162zM0 0zM68 1201v170l278 155v-839h-149v587zM524 154v151l231 494h193v-496h82v-149h-82v-174h-152v174h-272zM647 303h158v332z" />
<glyph unicode="&#xbd;" d="M-6 0l864 1485h160l-862 -1485h-162zM0 0zM78 1201v170l278 155v-839h-149v587zM576 -20l268 483q37 68 37 102q0 49 -20.5 68.5t-53.5 19.5q-72 0 -74 -114h-151q14 272 225 272q104 0 166.5 -67t62.5 -173q0 -47 -14 -89t-37 -83l-147 -245h192v-174h-454z" />
<glyph unicode="&#xbe;" d="M-37 947h152q0 -121 90 -121q43 0 68.5 31.5t25.5 80.5q0 53 -30.5 80t-67.5 31v123q35 2 63.5 28.5t28.5 73.5q0 51 -22.5 77t-59.5 26q-72 0 -88 -88h-135q8 102 64.5 165.5t166.5 63.5q45 0 85 -17.5t69 -48t45 -73.5t16 -94q0 -66 -16 -105t-55 -63q43 -27 67.5 -70 t24.5 -115q0 -117 -66.5 -187.5t-177.5 -70.5q-117 0 -182.5 75t-65.5 198zM0 0zM20 0l864 1485h160l-862 -1485h-162zM557 154v151l231 494h193v-496h82v-149h-82v-174h-152v174h-272zM680 303h158v332z" />
<glyph unicode="&#xbf;" d="M147 -41q0 72 15.5 135.5t56.5 112.5q45 55 85 92t68.5 68.5t46 64.5t17.5 82v29h238v-76q0 -66 -32 -139.5t-107 -139.5q-41 -35 -68 -62.5t-43 -54t-22.5 -55t-6.5 -65.5q0 -61 28 -104.5t97 -43.5q117 0 129 156h232q-2 -84 -29 -154.5t-74 -123t-113.5 -81 t-150.5 -28.5q-96 0 -164.5 29.5t-114 82t-67 123t-21.5 152.5zM416 928q0 74 38 122t99 48q63 0 98 -52.5t35 -117.5q0 -68 -35 -119t-98 -51q-68 0 -102.5 51t-34.5 119z" />
<glyph unicode="&#xc0;" d="M66 0l313 1485h264l315 -1485h-282l-51 240h-242l-51 -240h-266zM66 0zM168 1966h279l211 -362h-215zM422 471h162l-78 471z" />
<glyph unicode="&#xc1;" d="M66 0l313 1485h264l315 -1485h-282l-51 240h-242l-51 -240h-266zM66 0zM370 1604l209 362h279l-275 -362h-213zM422 471h162l-78 471z" />
<glyph unicode="&#xc2;" d="M66 0l313 1485h264l315 -1485h-282l-51 240h-242l-51 -240h-266zM66 0zM121 1618l225 348h334l225 -348h-215l-180 221l-176 -221h-213zM422 471h162l-78 471z" />
<glyph unicode="&#xc3;" d="M45 0zM45 1596v167q45 59 103.5 87t123.5 28q37 0 102.5 -19.5t138.5 -42t139.5 -42t103.5 -19.5q59 0 107 22.5t116 94.5v-166q-43 -59 -102.5 -88t-124.5 -29q-37 0 -102.5 19.5t-138.5 43t-139.5 43t-103.5 19.5q-29 0 -54.5 -5t-52 -18.5t-54 -37t-62.5 -57.5zM66 0 l313 1485h264l315 -1485h-282l-51 240h-242l-51 -240h-266zM422 471h162l-78 471z" />
<glyph unicode="&#xc4;" d="M66 0l313 1485h264l315 -1485h-282l-51 240h-242l-51 -240h-266zM66 0zM162 1757q0 66 34.5 115t100.5 49q59 0 95 -50.5t36 -113.5q0 -66 -34 -112.5t-97 -46.5q-66 0 -100.5 47t-34.5 112zM422 471h162l-78 471zM596 1757q0 66 35 115t100 49q59 0 96 -50.5t37 -113.5 q0 -66 -34.5 -112.5t-98.5 -46.5q-66 0 -100.5 47t-34.5 112z" />
<glyph unicode="&#xc5;" d="M66 0l313 1485h264l315 -1485h-282l-51 240h-242l-51 -240h-266zM66 0zM221 1727q0 59 23.5 104t63.5 75t92.5 45t111.5 15t111.5 -15t92.5 -45t62.5 -75t22.5 -104t-22.5 -104.5t-62.5 -75t-92.5 -44t-111.5 -14.5t-111.5 14.5t-92.5 44t-63.5 74.5t-23.5 105zM379 1727 q0 -63 35 -88t98 -25q61 0 97 24.5t36 88.5q0 61 -36 88.5t-97 27.5q-63 0 -98 -27.5t-35 -88.5zM422 471h162l-78 471z" />
<glyph unicode="&#xc6;" d="M10 0l209 1485h787v-236h-258v-379h258v-239h-258v-381h258v-250h-498v238h-217l-35 -238h-246zM317 481h191v768h-100z" />
<glyph unicode="&#xc7;" d="M100 0zM100 414v657q0 219 105.5 326.5t308.5 107.5q369 0 408 -393h-256q-6 80 -50.5 116t-101.5 36q-76 0 -119 -49.5t-43 -151.5v-641q0 -102 43 -151.5t119 -49.5q57 0 101 35t51 117h256q-39 -393 -408 -393q-203 0 -308.5 107.5t-105.5 326.5zM340 -449l78 414 l213 -53l-117 -404z" />
<glyph unicode="&#xc8;" d="M137 0v1485h754v-236h-490v-379h387v-239h-387v-381h490v-250h-754zM137 0zM168 1966h279l211 -362h-215z" />
<glyph unicode="&#xc9;" d="M137 0v1485h754v-236h-490v-379h387v-239h-387v-381h490v-250h-754zM137 0zM370 1604l209 362h279l-275 -362h-213z" />
<glyph unicode="&#xca;" d="M121 0zM121 1618l225 348h334l225 -348h-215l-180 221l-176 -221h-213zM137 0v1485h754v-236h-490v-379h387v-239h-387v-381h490v-250h-754z" />
<glyph unicode="&#xcb;" d="M137 0v1485h754v-236h-490v-379h387v-239h-387v-381h490v-250h-754zM137 0zM162 1757q0 66 34.5 115t100.5 49q59 0 95 -50.5t36 -113.5q0 -66 -34 -112.5t-97 -46.5q-66 0 -100.5 47t-34.5 112zM596 1757q0 66 35 115t100 49q59 0 96 -50.5t37 -113.5 q0 -66 -34.5 -112.5t-98.5 -46.5q-66 0 -100.5 47t-34.5 112z" />
<glyph unicode="&#xcc;" d="M166 0v238h223v1011h-223v236h694v-236h-219v-1011h219v-238h-694zM166 0zM168 1966h279l211 -362h-215z" />
<glyph unicode="&#xcd;" d="M166 0v238h223v1011h-223v236h694v-236h-219v-1011h219v-238h-694zM166 0zM370 1604l209 362h279l-275 -362h-213z" />
<glyph unicode="&#xce;" d="M121 0zM121 1618l225 348h334l225 -348h-215l-180 221l-176 -221h-213zM166 0v238h223v1011h-223v236h694v-236h-219v-1011h219v-238h-694z" />
<glyph unicode="&#xcf;" d="M162 0zM162 1757q0 66 34.5 115t100.5 49q59 0 95 -50.5t36 -113.5q0 -66 -34 -112.5t-97 -46.5q-66 0 -100.5 47t-34.5 112zM166 0v238h223v1011h-223v236h694v-236h-219v-1011h219v-238h-694zM596 1757q0 66 35 115t100 49q59 0 96 -50.5t37 -113.5q0 -66 -34.5 -112.5 t-98.5 -46.5q-66 0 -100.5 47t-34.5 112z" />
<glyph unicode="&#xd0;" d="M51 614v240h70v631h424q403 0 403 -455v-575q0 -446 -403 -447h-424v606h-70zM369 244h176q158 0 157 225v545q0 106 -42 176t-115 70h-176v-406h209v-240h-209v-370z" />
<glyph unicode="&#xd1;" d="M45 0zM45 1596v167q45 59 103.5 87t123.5 28q37 0 102.5 -19.5t138.5 -42t139.5 -42t103.5 -19.5q59 0 107 22.5t116 94.5v-166q-43 -59 -102.5 -88t-124.5 -29q-37 0 -102.5 19.5t-138.5 43t-139.5 43t-103.5 19.5q-29 0 -54.5 -5t-52 -18.5t-54 -37t-62.5 -57.5zM92 0 v1485h303l301 -869v869h236v-1485h-260l-338 868v-868h-242z" />
<glyph unicode="&#xd2;" d="M84 0zM84 453v577q0 217 108.5 346t321.5 129q205 0 315.5 -124t110.5 -351v-577q0 -225 -110.5 -349t-315.5 -124q-213 0 -321.5 129t-108.5 344zM168 1966h279l211 -362h-215zM336 414q0 -109 51 -159t127 -50q74 0 125 52t51 157v657q0 104 -51 156.5t-125 52.5 q-76 0 -127 -51t-51 -158v-657z" />
<glyph unicode="&#xd3;" d="M84 0zM84 453v577q0 217 108.5 346t321.5 129q205 0 315.5 -124t110.5 -351v-577q0 -225 -110.5 -349t-315.5 -124q-213 0 -321.5 129t-108.5 344zM336 414q0 -109 51 -159t127 -50q74 0 125 52t51 157v657q0 104 -51 156.5t-125 52.5q-76 0 -127 -51t-51 -158v-657z M370 1604l209 362h279l-275 -362h-213z" />
<glyph unicode="&#xd4;" d="M84 0zM84 453v577q0 217 108.5 346t321.5 129q205 0 315.5 -124t110.5 -351v-577q0 -225 -110.5 -349t-315.5 -124q-213 0 -321.5 129t-108.5 344zM121 1618l225 348h334l225 -348h-215l-180 221l-176 -221h-213zM336 414q0 -109 51 -159t127 -50q74 0 125 52t51 157v657 q0 104 -51 156.5t-125 52.5q-76 0 -127 -51t-51 -158v-657z" />
<glyph unicode="&#xd5;" d="M45 0zM45 1596v167q45 59 103.5 87t123.5 28q37 0 102.5 -19.5t138.5 -42t139.5 -42t103.5 -19.5q59 0 107 22.5t116 94.5v-166q-43 -59 -102.5 -88t-124.5 -29q-37 0 -102.5 19.5t-138.5 43t-139.5 43t-103.5 19.5q-29 0 -54.5 -5t-52 -18.5t-54 -37t-62.5 -57.5z M84 453v577q0 217 108.5 346t321.5 129q205 0 315.5 -124t110.5 -351v-577q0 -225 -110.5 -349t-315.5 -124q-213 0 -321.5 129t-108.5 344zM336 414q0 -109 51 -159t127 -50q74 0 125 52t51 157v657q0 104 -51 156.5t-125 52.5q-76 0 -127 -51t-51 -158v-657z" />
<glyph unicode="&#xd6;" d="M84 0zM84 453v577q0 217 108.5 346t321.5 129q205 0 315.5 -124t110.5 -351v-577q0 -225 -110.5 -349t-315.5 -124q-213 0 -321.5 129t-108.5 344zM162 1757q0 66 34.5 115t100.5 49q59 0 95 -50.5t36 -113.5q0 -66 -34 -112.5t-97 -46.5q-66 0 -100.5 47t-34.5 112z M336 414q0 -109 51 -159t127 -50q74 0 125 52t51 157v657q0 104 -51 156.5t-125 52.5q-76 0 -127 -51t-51 -158v-657zM596 1757q0 66 35 115t100 49q59 0 96 -50.5t37 -113.5q0 -66 -34.5 -112.5t-98.5 -46.5q-66 0 -100.5 47t-34.5 112z" />
<glyph unicode="&#xd7;" d="M133 469l266 268l-264 264l113 117l266 -264l264 262l117 -117l-266 -262l266 -266l-117 -115l-264 265l-266 -267z" />
<glyph unicode="&#xd8;" d="M0 -125l147 301q-63 115 -63 277v577q0 217 108.5 346t321.5 129q150 0 248 -67l84 172h178l-145 -301q61 -111 61 -279v-577q0 -225 -110.5 -349t-315.5 -124q-154 0 -254 67l-82 -172h-178zM336 561l315 647q-25 37 -60.5 54.5t-76.5 17.5q-76 0 -127 -51t-51 -158 v-510zM373 272q23 -35 59.5 -51t81.5 -16q74 0 125 52t51 157v508z" />
<glyph unicode="&#xd9;" d="M78 0zM78 422v1063h254v-1049q0 -111 53 -168t129 -57q74 0 128 57.5t54 167.5v1049h250v-1063q0 -229 -115.5 -335.5t-316.5 -106.5q-207 0 -321.5 108.5t-114.5 333.5zM168 1966h279l211 -362h-215z" />
<glyph unicode="&#xda;" d="M78 0zM78 422v1063h254v-1049q0 -111 53 -168t129 -57q74 0 128 57.5t54 167.5v1049h250v-1063q0 -229 -115.5 -335.5t-316.5 -106.5q-207 0 -321.5 108.5t-114.5 333.5zM370 1604l209 362h279l-275 -362h-213z" />
<glyph unicode="&#xdb;" d="M78 0zM78 422v1063h254v-1049q0 -111 53 -168t129 -57q74 0 128 57.5t54 167.5v1049h250v-1063q0 -229 -115.5 -335.5t-316.5 -106.5q-207 0 -321.5 108.5t-114.5 333.5zM121 1618l225 348h334l225 -348h-215l-180 221l-176 -221h-213z" />
<glyph unicode="&#xdc;" d="M78 0zM78 422v1063h254v-1049q0 -111 53 -168t129 -57q74 0 128 57.5t54 167.5v1049h250v-1063q0 -229 -115.5 -335.5t-316.5 -106.5q-207 0 -321.5 108.5t-114.5 333.5zM162 1757q0 66 34.5 115t100.5 49q59 0 95 -50.5t36 -113.5q0 -66 -34 -112.5t-97 -46.5 q-66 0 -100.5 47t-34.5 112zM596 1757q0 66 35 115t100 49q59 0 96 -50.5t37 -113.5q0 -66 -34.5 -112.5t-98.5 -46.5q-66 0 -100.5 47t-34.5 112z" />
<glyph unicode="&#xdd;" d="M25 0zM25 1485h313l180 -543l178 543h305l-356 -893v-592h-266v592zM370 1604l209 362h279l-275 -362h-213z" />
<glyph unicode="&#xde;" d="M104 0v1485h263v-236h153q225 0 333 -123.5t108 -371.5t-108 -372t-333 -124h-153v-258h-263zM367 510h122q203 0 203 244t-203 243h-122v-487z" />
<glyph unicode="&#xdf;" d="M127 0v1126q0 84 28.5 154t80 120t123 77.5t155.5 27.5q86 0 158.5 -27.5t124 -81t80 -129t28.5 -171.5q0 -129 -46 -200t-118 -114q94 -41 145.5 -122.5t51.5 -223.5q0 -102 -28.5 -187t-82 -144.5t-132.5 -92t-179 -32.5v237q78 0 133.5 60.5t55.5 171.5t-50.5 173 t-117.5 62v184q68 0 112.5 54.5t44.5 152.5q0 92 -44 149.5t-136 57.5q-74 0 -123 -47t-49 -143v-1092h-215z" />
<glyph unicode="&#xe0;" d="M98 0zM98 299q0 166 82 244t246 78q111 0 172 -15.5t94 -44.5v111q0 80 -46 123t-126 43q-125 0 -164 -113l-217 70q23 72 64 120t92 76.5t109.5 39.5t113.5 11q111 0 188.5 -25.5t127 -73.5t72 -115.5t22.5 -149.5v-678h-211v176q-35 -80 -103.5 -138t-181.5 -58 q-90 0 -153.5 23.5t-103.5 65.5t-58.5 100t-18.5 130zM168 1503h279l211 -362h-215zM348 299q0 -68 42 -97.5t114 -29.5q63 0 116.5 46t71.5 104v69q-31 18 -78 32.5t-100 14.5q-90 0 -128 -40t-38 -99z" />
<glyph unicode="&#xe1;" d="M98 0zM98 299q0 166 82 244t246 78q111 0 172 -15.5t94 -44.5v111q0 80 -46 123t-126 43q-125 0 -164 -113l-217 70q23 72 64 120t92 76.5t109.5 39.5t113.5 11q111 0 188.5 -25.5t127 -73.5t72 -115.5t22.5 -149.5v-678h-211v176q-35 -80 -103.5 -138t-181.5 -58 q-90 0 -153.5 23.5t-103.5 65.5t-58.5 100t-18.5 130zM348 299q0 -68 42 -97.5t114 -29.5q63 0 116.5 46t71.5 104v69q-31 18 -78 32.5t-100 14.5q-90 0 -128 -40t-38 -99zM370 1141l209 362h279l-275 -362h-213z" />
<glyph unicode="&#xe2;" d="M98 0zM98 299q0 166 82 244t246 78q111 0 172 -15.5t94 -44.5v111q0 80 -46 123t-126 43q-125 0 -164 -113l-217 70q23 72 64 120t92 76.5t109.5 39.5t113.5 11q111 0 188.5 -25.5t127 -73.5t72 -115.5t22.5 -149.5v-678h-211v176q-35 -80 -103.5 -138t-181.5 -58 q-90 0 -153.5 23.5t-103.5 65.5t-58.5 100t-18.5 130zM121 1155l225 348h334l225 -348h-215l-180 221l-176 -221h-213zM348 299q0 -68 42 -97.5t114 -29.5q63 0 116.5 46t71.5 104v69q-31 18 -78 32.5t-100 14.5q-90 0 -128 -40t-38 -99z" />
<glyph unicode="&#xe3;" d="M45 0zM45 1133v167q45 59 103.5 87t123.5 28q37 0 102.5 -19.5t138.5 -42t139.5 -42t103.5 -19.5q59 0 107 22.5t116 94.5v-166q-43 -59 -102.5 -88t-124.5 -29q-37 0 -102.5 19.5t-138.5 43t-139.5 43t-103.5 19.5q-29 0 -54.5 -5t-52 -18.5t-54 -37t-62.5 -57.5z M98 299q0 166 82 244t246 78q111 0 172 -15.5t94 -44.5v111q0 80 -46 123t-126 43q-125 0 -164 -113l-217 70q23 72 64 120t92 76.5t109.5 39.5t113.5 11q111 0 188.5 -25.5t127 -73.5t72 -115.5t22.5 -149.5v-678h-211v176q-35 -80 -103.5 -138t-181.5 -58 q-90 0 -153.5 23.5t-103.5 65.5t-58.5 100t-18.5 130zM348 299q0 -68 42 -97.5t114 -29.5q63 0 116.5 46t71.5 104v69q-31 18 -78 32.5t-100 14.5q-90 0 -128 -40t-38 -99z" />
<glyph unicode="&#xe4;" d="M98 0zM98 299q0 166 82 244t246 78q111 0 172 -15.5t94 -44.5v111q0 80 -46 123t-126 43q-125 0 -164 -113l-217 70q23 72 64 120t92 76.5t109.5 39.5t113.5 11q111 0 188.5 -25.5t127 -73.5t72 -115.5t22.5 -149.5v-678h-211v176q-35 -80 -103.5 -138t-181.5 -58 q-90 0 -153.5 23.5t-103.5 65.5t-58.5 100t-18.5 130zM162 1294q0 66 34.5 115t100.5 49q59 0 95 -50.5t36 -113.5q0 -66 -34 -112.5t-97 -46.5q-66 0 -100.5 47t-34.5 112zM348 299q0 -68 42 -97.5t114 -29.5q63 0 116.5 46t71.5 104v69q-31 18 -78 32.5t-100 14.5 q-90 0 -128 -40t-38 -99zM596 1294q0 66 35 115t100 49q59 0 96 -50.5t37 -113.5q0 -66 -34.5 -112.5t-98.5 -46.5q-66 0 -100.5 47t-34.5 112z" />
<glyph unicode="&#xe5;" d="M98 0zM98 299q0 166 82 244t246 78q111 0 172 -15.5t94 -44.5v111q0 80 -46 123t-126 43q-125 0 -164 -113l-217 70q23 72 64 120t92 76.5t109.5 39.5t113.5 11q111 0 188.5 -25.5t127 -73.5t72 -115.5t22.5 -149.5v-678h-211v176q-35 -80 -103.5 -138t-181.5 -58 q-90 0 -153.5 23.5t-103.5 65.5t-58.5 100t-18.5 130zM221 1368q0 59 23.5 104t63.5 75t92.5 45t111.5 15t111.5 -15t92.5 -45t62.5 -75t22.5 -104t-22.5 -104.5t-62.5 -75t-92.5 -44t-111.5 -14.5t-111.5 14.5t-92.5 44t-63.5 74.5t-23.5 105zM348 299q0 -68 42 -97.5 t114 -29.5q63 0 116.5 46t71.5 104v69q-31 18 -78 32.5t-100 14.5q-90 0 -128 -40t-38 -99zM379 1368q0 -63 35 -88t98 -25q61 0 97 24.5t36 88.5q0 61 -36 88.5t-97 27.5q-63 0 -98 -27.5t-35 -88.5z" />
<glyph unicode="&#xe6;" d="M14 299q0 66 12.5 125t40 103t70.5 70t107 26q90 0 157 -84v133q0 82 -20.5 118.5t-61.5 36.5q-39 0 -61 -21.5t-39 -80.5l-172 70q41 133 106.5 190t151.5 57q74 0 122 -32.5t83 -102.5q41 66 94 100.5t127 34.5q131 0 204 -139t77 -444h-408q0 -147 31 -212t78 -65 q35 0 56.5 24.5t37.5 88.5l176 -55q-16 -47 -37.5 -93.5t-53.5 -83t-75 -60t-104 -23.5q-82 0 -139.5 50t-73.5 146q-29 -98 -93.5 -147t-146.5 -49q-104 0 -175 73.5t-71 245.5zM213 299q0 -55 20.5 -91t55.5 -36q33 0 63.5 38t48.5 97v84q-51 45 -102 45q-86 0 -86 -137z M602 563h223q-4 141 -29.5 199.5t-72.5 58.5q-49 0 -82 -58t-39 -200z" />
<glyph unicode="&#xe7;" d="M78 0zM78 510q0 117 38 214t107.5 168t167.5 110.5t219 39.5q57 0 108.5 -13t91.5 -32.5t67.5 -42t40.5 -43.5l-136 -184q-29 35 -73.5 56.5t-118.5 21.5q-113 0 -189.5 -71.5t-76.5 -225.5q0 -143 73.5 -218t192.5 -75q53 0 112.5 26.5t94.5 80.5l139 -185 q-61 -82 -146 -119.5t-202 -37.5t-211 38.5t-160.5 108.5t-102.5 168t-36 215zM366 -449l78 414l213 -53l-117 -404z" />
<glyph unicode="&#xe8;" d="M63 0zM63 504q0 127 34 227t94.5 169t143.5 105.5t183 36.5q207 0 320.5 -151.5t122.5 -431.5h-648q10 -135 66.5 -198.5t155.5 -63.5q117 0 163 110l228 -55q-53 -137 -155.5 -204.5t-246.5 -67.5q-102 0 -187 37.5t-145.5 107.5t-94.5 166t-34 213zM168 1503h279 l211 -362h-215zM309 563h414q-4 125 -60.5 192.5t-142.5 67.5q-94 0 -147.5 -67.5t-63.5 -192.5z" />
<glyph unicode="&#xe9;" d="M63 0zM63 504q0 127 34 227t94.5 169t143.5 105.5t183 36.5q207 0 320.5 -151.5t122.5 -431.5h-648q10 -135 66.5 -198.5t155.5 -63.5q117 0 163 110l228 -55q-53 -137 -155.5 -204.5t-246.5 -67.5q-102 0 -187 37.5t-145.5 107.5t-94.5 166t-34 213zM309 563h414 q-4 125 -60.5 192.5t-142.5 67.5q-94 0 -147.5 -67.5t-63.5 -192.5zM370 1141l209 362h279l-275 -362h-213z" />
<glyph unicode="&#xea;" d="M63 0zM63 504q0 127 34 227t94.5 169t143.5 105.5t183 36.5q207 0 320.5 -151.5t122.5 -431.5h-648q10 -135 66.5 -198.5t155.5 -63.5q117 0 163 110l228 -55q-53 -137 -155.5 -204.5t-246.5 -67.5q-102 0 -187 37.5t-145.5 107.5t-94.5 166t-34 213zM121 1155l225 348 h334l225 -348h-215l-180 221l-176 -221h-213zM309 563h414q-4 125 -60.5 192.5t-142.5 67.5q-94 0 -147.5 -67.5t-63.5 -192.5z" />
<glyph unicode="&#xeb;" d="M63 0zM63 504q0 127 34 227t94.5 169t143.5 105.5t183 36.5q207 0 320.5 -151.5t122.5 -431.5h-648q10 -135 66.5 -198.5t155.5 -63.5q117 0 163 110l228 -55q-53 -137 -155.5 -204.5t-246.5 -67.5q-102 0 -187 37.5t-145.5 107.5t-94.5 166t-34 213zM162 1294 q0 66 34.5 115t100.5 49q59 0 95 -50.5t36 -113.5q0 -66 -34 -112.5t-97 -46.5q-66 0 -100.5 47t-34.5 112zM309 563h414q-4 125 -60.5 192.5t-142.5 67.5q-94 0 -147.5 -67.5t-63.5 -192.5zM596 1294q0 66 35 115t100 49q59 0 96 -50.5t37 -113.5q0 -66 -34.5 -112.5 t-98.5 -46.5q-66 0 -100.5 47t-34.5 112z" />
<glyph unicode="&#xec;" d="M168 0zM168 1503h279l211 -362h-215zM186 0v238h222v544h-222v238h457v-782h195v-238h-652z" />
<glyph unicode="&#xed;" d="M186 0v238h222v544h-222v238h457v-782h195v-238h-652zM186 0zM370 1141l209 362h279l-275 -362h-213z" />
<glyph unicode="&#xee;" d="M121 0zM121 1155l225 348h334l225 -348h-215l-180 221l-176 -221h-213zM186 0v238h222v544h-222v238h457v-782h195v-238h-652z" />
<glyph unicode="&#xef;" d="M162 0zM162 1294q0 66 34.5 115t100.5 49q59 0 95 -50.5t36 -113.5q0 -66 -34 -112.5t-97 -46.5q-66 0 -100.5 47t-34.5 112zM186 0v238h222v544h-222v238h457v-782h195v-238h-652zM596 1294q0 66 35 115t100 49q59 0 96 -50.5t37 -113.5q0 -66 -34.5 -112.5t-98.5 -46.5 q-66 0 -100.5 47t-34.5 112z" />
<glyph unicode="&#xf0;" d="M74 485q0 106 30.5 198.5t88 160t139.5 106.5t182 39q70 0 133 -22q-16 59 -34.5 115.5t-41.5 111.5l-157 -84l-54 102l164 88q-20 39 -42.5 76t-45.5 74l189 96q23 -37 46 -72.5t44 -72.5l151 82l56 -103l-154 -82q25 -51 46.5 -101t41.5 -101q51 -147 72.5 -298 t21.5 -313q0 -109 -31.5 -200.5t-89 -159.5t-138.5 -106.5t-177 -38.5q-98 0 -180 37.5t-139.5 105t-89 161t-31.5 201.5zM324 489q0 -59 14 -109t39.5 -87t60.5 -57.5t76 -20.5q86 0 137 77t51 200q0 121 -52 198.5t-136 77.5q-88 0 -139 -80t-51 -199z" />
<glyph unicode="&#xf1;" d="M45 0zM45 1133v167q45 59 103.5 87t123.5 28q37 0 102.5 -19.5t138.5 -42t139.5 -42t103.5 -19.5q59 0 107 22.5t116 94.5v-166q-43 -59 -102.5 -88t-124.5 -29q-37 0 -102.5 19.5t-138.5 43t-139.5 43t-103.5 19.5q-29 0 -54.5 -5t-52 -18.5t-54 -37t-62.5 -57.5zM119 0 v1020h237v-211q53 127 136 180t180 53q129 0 193.5 -84t64.5 -235v-723h-238v618q0 98 -41 150.5t-125 52.5q-86 0 -128 -51t-42 -149v-621h-237z" />
<glyph unicode="&#xf2;" d="M74 0zM74 510q0 113 30.5 210t88 169t139.5 112.5t182 40.5q98 0 179 -40.5t137.5 -113.5t88 -170t31.5 -208q0 -113 -31.5 -210t-89 -168t-138.5 -111.5t-177 -40.5q-98 0 -180 39.5t-139.5 110.5t-89 168t-31.5 212zM168 1503h279l211 -362h-215zM324 508 q0 -61 14 -115.5t39.5 -93.5t60.5 -61.5t76 -22.5q86 0 137 82t51 213q0 129 -52 212t-136 83q-43 0 -79 -22.5t-60.5 -62.5t-37.5 -94.5t-13 -117.5z" />
<glyph unicode="&#xf3;" d="M74 0zM74 510q0 113 30.5 210t88 169t139.5 112.5t182 40.5q98 0 179 -40.5t137.5 -113.5t88 -170t31.5 -208q0 -113 -31.5 -210t-89 -168t-138.5 -111.5t-177 -40.5q-98 0 -180 39.5t-139.5 110.5t-89 168t-31.5 212zM324 508q0 -61 14 -115.5t39.5 -93.5t60.5 -61.5 t76 -22.5q86 0 137 82t51 213q0 129 -52 212t-136 83q-43 0 -79 -22.5t-60.5 -62.5t-37.5 -94.5t-13 -117.5zM370 1141l209 362h279l-275 -362h-213z" />
<glyph unicode="&#xf4;" d="M74 0zM74 510q0 113 30.5 210t88 169t139.5 112.5t182 40.5q98 0 179 -40.5t137.5 -113.5t88 -170t31.5 -208q0 -113 -31.5 -210t-89 -168t-138.5 -111.5t-177 -40.5q-98 0 -180 39.5t-139.5 110.5t-89 168t-31.5 212zM121 1155l225 348h334l225 -348h-215l-180 221 l-176 -221h-213zM324 508q0 -61 14 -115.5t39.5 -93.5t60.5 -61.5t76 -22.5q86 0 137 82t51 213q0 129 -52 212t-136 83q-43 0 -79 -22.5t-60.5 -62.5t-37.5 -94.5t-13 -117.5z" />
<glyph unicode="&#xf5;" d="M45 0zM45 1133v167q45 59 103.5 87t123.5 28q37 0 102.5 -19.5t138.5 -42t139.5 -42t103.5 -19.5q59 0 107 22.5t116 94.5v-166q-43 -59 -102.5 -88t-124.5 -29q-37 0 -102.5 19.5t-138.5 43t-139.5 43t-103.5 19.5q-29 0 -54.5 -5t-52 -18.5t-54 -37t-62.5 -57.5z M74 510q0 113 30.5 210t88 169t139.5 112.5t182 40.5q98 0 179 -40.5t137.5 -113.5t88 -170t31.5 -208q0 -113 -31.5 -210t-89 -168t-138.5 -111.5t-177 -40.5q-98 0 -180 39.5t-139.5 110.5t-89 168t-31.5 212zM324 508q0 -61 14 -115.5t39.5 -93.5t60.5 -61.5t76 -22.5 q86 0 137 82t51 213q0 129 -52 212t-136 83q-43 0 -79 -22.5t-60.5 -62.5t-37.5 -94.5t-13 -117.5z" />
<glyph unicode="&#xf6;" d="M74 0zM74 510q0 113 30.5 210t88 169t139.5 112.5t182 40.5q98 0 179 -40.5t137.5 -113.5t88 -170t31.5 -208q0 -113 -31.5 -210t-89 -168t-138.5 -111.5t-177 -40.5q-98 0 -180 39.5t-139.5 110.5t-89 168t-31.5 212zM162 1294q0 66 34.5 115t100.5 49q59 0 95 -50.5 t36 -113.5q0 -66 -34 -112.5t-97 -46.5q-66 0 -100.5 47t-34.5 112zM324 508q0 -61 14 -115.5t39.5 -93.5t60.5 -61.5t76 -22.5q86 0 137 82t51 213q0 129 -52 212t-136 83q-43 0 -79 -22.5t-60.5 -62.5t-37.5 -94.5t-13 -117.5zM596 1294q0 66 35 115t100 49q59 0 96 -50.5 t37 -113.5q0 -66 -34.5 -112.5t-98.5 -46.5q-66 0 -100.5 47t-34.5 112z" />
<glyph unicode="&#xf7;" d="M55 129zM55 655v164h914v-164h-914zM379 289q0 66 35 115t100 49q59 0 95 -50.5t36 -113.5q0 -66 -33.5 -112.5t-97.5 -46.5q-66 0 -100.5 47t-34.5 112zM379 1188q0 66 35 115t100 49q59 0 95 -50.5t36 -113.5q0 -66 -33.5 -112.5t-97.5 -46.5q-66 0 -100.5 47 t-34.5 112z" />
<glyph unicode="&#xf8;" d="M0 -125l180 275q-51 70 -78.5 160.5t-27.5 199.5q0 113 30.5 210t88 169t139.5 112.5t182 40.5q59 0 113.5 -17t101.5 -48l111 168h184l-182 -275q53 -72 80.5 -164t27.5 -196q0 -113 -31.5 -210t-89 -168t-138.5 -111.5t-177 -40.5q-127 0 -219 61l-111 -166h-184z M324 508q0 -72 14 -121l258 391q-41 27 -82 27q-43 0 -79 -22.5t-60.5 -62.5t-37.5 -94.5t-13 -117.5zM428 244q39 -29 86 -29q86 0 137 82t51 213q0 63 -16 123z" />
<glyph unicode="&#xf9;" d="M98 0zM98 377v643h238v-625q0 -51 15.5 -86t40 -57.5t56 -32.5t66.5 -10q33 0 64.5 10t56 32.5t40 57.5t15.5 86v625h238v-643q0 -188 -113 -292.5t-301 -104.5q-190 0 -303 104t-113 293zM168 1503h279l211 -362h-215z" />
<glyph unicode="&#xfa;" d="M98 0zM98 377v643h238v-625q0 -51 15.5 -86t40 -57.5t56 -32.5t66.5 -10q33 0 64.5 10t56 32.5t40 57.5t15.5 86v625h238v-643q0 -188 -113 -292.5t-301 -104.5q-190 0 -303 104t-113 293zM370 1141l209 362h279l-275 -362h-213z" />
<glyph unicode="&#xfb;" d="M98 0zM98 377v643h238v-625q0 -51 15.5 -86t40 -57.5t56 -32.5t66.5 -10q33 0 64.5 10t56 32.5t40 57.5t15.5 86v625h238v-643q0 -188 -113 -292.5t-301 -104.5q-190 0 -303 104t-113 293zM121 1155l225 348h334l225 -348h-215l-180 221l-176 -221h-213z" />
<glyph unicode="&#xfc;" d="M98 0zM98 377v643h238v-625q0 -51 15.5 -86t40 -57.5t56 -32.5t66.5 -10q33 0 64.5 10t56 32.5t40 57.5t15.5 86v625h238v-643q0 -188 -113 -292.5t-301 -104.5q-190 0 -303 104t-113 293zM162 1294q0 66 34.5 115t100.5 49q59 0 95 -50.5t36 -113.5q0 -66 -34 -112.5 t-97 -46.5q-66 0 -100.5 47t-34.5 112zM596 1294q0 66 35 115t100 49q59 0 96 -50.5t37 -113.5q0 -66 -34.5 -112.5t-98.5 -46.5q-66 0 -100.5 47t-34.5 112z" />
<glyph unicode="&#xfd;" d="M51 0zM51 1020h268l205 -711l203 711h246l-428 -1428h-264l110 357zM370 1141l209 362h279l-275 -362h-213z" />
<glyph unicode="&#xfe;" d="M84 -408v1893h238v-680q47 133 122.5 185t157.5 52q92 0 155.5 -35.5t104.5 -103t59.5 -166t18.5 -223.5q0 -256 -77 -395t-261 -139q-82 0 -157.5 51t-122.5 184v-623h-238zM322 508q0 -68 13 -127t37.5 -103.5t59.5 -69t76 -24.5q86 0 135 84t49 248q0 156 -49 238 t-135 82q-41 0 -76 -25t-59.5 -68t-37.5 -102t-13 -127v-6z" />
<glyph unicode="&#xff;" d="M51 0zM51 1020h268l205 -711l203 711h246l-428 -1428h-264l110 357zM162 1294q0 66 34.5 115t100.5 49q59 0 95 -50.5t36 -113.5q0 -66 -34 -112.5t-97 -46.5q-66 0 -100.5 47t-34.5 112zM596 1294q0 66 35 115t100 49q59 0 96 -50.5t37 -113.5q0 -66 -34.5 -112.5 t-98.5 -46.5q-66 0 -100.5 47t-34.5 112z" />
<glyph unicode="&#x152;" d="M43 406v698q0 199 82 290t272 91h586v-236h-270v-379h270v-239h-270v-381h270v-250h-586q-184 0 -269 92t-85 314zM295 395q0 -86 24.5 -125t77.5 -39t77 39t24 125v727q0 82 -23.5 110t-77.5 28q-53 0 -77.5 -30t-24.5 -110v-725z" />
<glyph unicode="&#x153;" d="M27 510q0 270 76.5 401t211.5 131q66 0 108 -34.5t75 -100.5q41 66 94 100.5t127 34.5q66 0 118 -32.5t88 -103t55 -181.5t19 -266h-407q0 -147 30.5 -212t77.5 -65q35 0 56.5 24.5t38.5 88.5l176 -55q-16 -47 -38 -93.5t-53.5 -83t-75 -60t-104.5 -23.5q-72 0 -126 38.5 t-76 112.5q-27 -72 -81.5 -111.5t-123.5 -39.5q-63 0 -112.5 29.5t-83.5 93t-52 164t-18 243.5zM209 508q0 -340 106 -340q109 0 109 342q0 338 -109 338q-106 0 -106 -340zM590 563h223q-4 141 -29.5 199.5t-72.5 58.5q-49 0 -82 -58t-39 -200z" />
<glyph unicode="&#x178;" d="M25 0zM25 1485h313l180 -543l178 543h305l-356 -893v-592h-266v592zM162 1757q0 66 34.5 115t100.5 49q59 0 95 -50.5t36 -113.5q0 -66 -34 -112.5t-97 -46.5q-66 0 -100.5 47t-34.5 112zM596 1757q0 66 35 115t100 49q59 0 96 -50.5t37 -113.5q0 -66 -34.5 -112.5 t-98.5 -46.5q-66 0 -100.5 47t-34.5 112z" />
<glyph unicode="&#x2c6;" d="M121 1155l225 348h334l225 -348h-215l-180 221l-176 -221h-213z" />
<glyph unicode="&#x2dc;" d="M45 1133v167q45 59 103.5 87t123.5 28q37 0 102.5 -19.5t138.5 -42t139.5 -42t103.5 -19.5q59 0 107 22.5t116 94.5v-166q-43 -59 -102.5 -88t-124.5 -29q-37 0 -102.5 19.5t-138.5 43t-139.5 43t-103.5 19.5q-29 0 -54.5 -5t-52 -18.5t-54 -37t-62.5 -57.5z" />
<glyph unicode="&#x2000;" horiz-adv-x="983" />
<glyph unicode="&#x2001;" horiz-adv-x="1966" />
<glyph unicode="&#x2002;" horiz-adv-x="983" />
<glyph unicode="&#x2003;" horiz-adv-x="1966" />
<glyph unicode="&#x2004;" horiz-adv-x="655" />
<glyph unicode="&#x2005;" horiz-adv-x="491" />
<glyph unicode="&#x2006;" horiz-adv-x="327" />
<glyph unicode="&#x2007;" horiz-adv-x="327" />
<glyph unicode="&#x2008;" horiz-adv-x="245" />
<glyph unicode="&#x2009;" horiz-adv-x="393" />
<glyph unicode="&#x200a;" horiz-adv-x="109" />
<glyph unicode="&#x2010;" d="M195 643v219h632v-219h-632z" />
<glyph unicode="&#x2011;" d="M195 643v219h632v-219h-632z" />
<glyph unicode="&#x2012;" d="M195 643v219h632v-219h-632z" />
<glyph unicode="&#x2013;" d="M154 643v219h716v-219h-716z" />
<glyph unicode="&#x2014;" d="M0 643v219h1024v-219h-1024z" />
<glyph unicode="&#x2018;" d="M367 1452l213 53l77 -551l-172 -41z" />
<glyph unicode="&#x2019;" d="M350 954l78 551l213 -53l-117 -539z" />
<glyph unicode="&#x201a;" d="M350 -238l78 551l213 -55l-117 -537z" />
<glyph unicode="&#x201c;" d="M152 1452l213 53l77 -551l-174 -41zM582 1452l213 53l79 -551l-174 -41z" />
<glyph unicode="&#x201d;" d="M152 954l77 551l213 -53l-116 -539zM582 954l77 551l215 -53l-118 -539z" />
<glyph unicode="&#x201e;" d="M152 -238l77 551l213 -55l-116 -537zM582 -238l77 551l215 -55l-118 -537z" />
<glyph unicode="&#x2022;" d="M139 758q0 76 30 144.5t80 118.5t117.5 79.5t145.5 29.5q76 0 144.5 -29.5t118.5 -79.5t80 -118.5t30 -144.5q0 -78 -30 -145.5t-80 -118t-118.5 -80t-144.5 -29.5q-78 0 -145.5 29.5t-117.5 80t-80 118t-30 145.5z" />
<glyph unicode="&#x2026;" d="M61 0zM62 139q0 66 35 115t100 49q59 0 95 -50.5t36 -113.5q0 -66 -33.5 -112.5t-97.5 -46.5q-66 0 -100.5 47t-34.5 112zM379 139q0 66 35 115t100 49q59 0 95 -50.5t36 -113.5q0 -66 -33.5 -112.5t-97.5 -46.5q-66 0 -100.5 47t-34.5 112zM703 139q0 66 35 115t100 49 q59 0 95 -50.5t36 -113.5q0 -66 -33.5 -112.5t-97.5 -46.5q-66 0 -100.5 47t-34.5 112z" />
<glyph unicode="&#x202f;" horiz-adv-x="393" />
<glyph unicode="&#x2039;" d="M338 528v334l348 225v-215l-223 -180l223 -176v-213z" />
<glyph unicode="&#x203a;" d="M338 303v213l221 176l-221 180v215l348 -225v-334z" />
<glyph unicode="&#x205f;" horiz-adv-x="491" />
<glyph unicode="&#x20ac;" d="M66 561l43 107h43v184h-86l43 106h43v105q0 221 106.5 331.5t306.5 110.5q137 0 232 -57l-88 -311q-20 63 -50 95t-94 32q-76 0 -119 -54.5t-43 -148.5v-103h250l-32 -106h-218v-184h164l-30 -107h-134v-164q0 -29 11.5 -61.5t32 -60t51 -46t67.5 -18.5q29 0 54.5 14.5 t46.5 36.5l196 -143q-35 -53 -106.5 -96t-190.5 -43q-100 0 -177 29.5t-129 83.5t-79.5 130t-27.5 168v170h-86z" />
<glyph unicode="&#x2122;" d="M51 1378v107h406v-107h-135v-510h-132v510h-139zM547 868v617h131l80 -238l88 238h123v-617h-115v359l-96 -252l-94 252v-359h-117z" />
<glyph unicode="&#x25fc;" d="M0 0v1024h1024v-1024h-1024z" />
</font>
</defs>
</svg>
